<?xml version="1.0" encoding="utf-8" standalone="no"?>
<!DOCTYPE svg PUBLIC "-//W3C//DTD SVG 1.1//EN"
  "http://www.w3.org/Graphics/SVG/1.1/DTD/svg11.dtd">
<svg xmlns:xlink="http://www.w3.org/1999/xlink" width="720pt" height="576pt" viewBox="0 0 720 576" xmlns="http://www.w3.org/2000/svg" version="1.1">
 <metadata>
  <rdf:RDF xmlns:dc="http://purl.org/dc/elements/1.1/" xmlns:cc="http://creativecommons.org/ns#" xmlns:rdf="http://www.w3.org/1999/02/22-rdf-syntax-ns#">
   <cc:Work>
    <dc:type rdf:resource="http://purl.org/dc/dcmitype/StillImage"/>
    <dc:date>2025-11-27T18:19:10.309621</dc:date>
    <dc:format>image/svg+xml</dc:format>
    <dc:creator>
     <cc:Agent>
      <dc:title>Matplotlib v3.8.3, https://matplotlib.org/</dc:title>
     </cc:Agent>
    </dc:creator>
   </cc:Work>
  </rdf:RDF>
 </metadata>
 <defs>
  <style type="text/css">*{stroke-linejoin: round; stroke-linecap: butt}</style>
 </defs>
 <g id="figure_1">
  <g id="patch_1">
   <path d="M 0 576 
L 720 576 
L 720 0 
L 0 0 
z
" style="fill: #ffffff"/>
  </g>
  <g id="axes_1">
   <g id="patch_2">
    <path d="M 90 198.48 
L 648 198.48 
Q 675.9 198.48 675.9 192.32 
L 675.9 69.12 
Q 675.9 62.96 648 62.96 
L 90 62.96 
Q 62.1 62.96 62.1 69.12 
L 62.1 192.32 
Q 62.1 198.48 90 198.48 
L 90 198.48 
z
" clip-path="url(#pac86c60440)" style="fill: none; stroke: #e63946; stroke-width: 1.5; stroke-linejoin: miter"/>
   </g>
   <g id="patch_3">
    <path d="M 302.04 155.36 
L 357.84 155.36 
L 357.84 118.4 
L 302.04 118.4 
z
" clip-path="url(#pac86c60440)" style="fill: #dddddd; stroke: #000000; stroke-linejoin: miter"/>
   </g>
   <g id="text_1">
    <!-- Panel A: The Aging Pipeline -->
    <g style="fill: #e63946" transform="translate(117.9 81.44) scale(0.12 -0.12)">
     <defs>
      <path id="Arial-BoldMT-50" d="M 466 0 
L 466 4581 
L 1950 4581 
Q 2794 4581 3050 4513 
Q 3444 4409 3709 4064 
Q 3975 3719 3975 3172 
Q 3975 2750 3822 2462 
Q 3669 2175 3433 2011 
Q 3197 1847 2953 1794 
Q 2622 1728 1994 1728 
L 1391 1728 
L 1391 0 
L 466 0 
z
M 1391 3806 
L 1391 2506 
L 1897 2506 
Q 2444 2506 2628 2578 
Q 2813 2650 2917 2803 
Q 3022 2956 3022 3159 
Q 3022 3409 2875 3571 
Q 2728 3734 2503 3775 
Q 2338 3806 1838 3806 
L 1391 3806 
z
" transform="scale(0.015625)"/>
      <path id="Arial-BoldMT-61" d="M 1116 2306 
L 319 2450 
Q 453 2931 781 3162 
Q 1109 3394 1756 3394 
Q 2344 3394 2631 3255 
Q 2919 3116 3036 2902 
Q 3153 2688 3153 2116 
L 3144 1091 
Q 3144 653 3186 445 
Q 3228 238 3344 0 
L 2475 0 
Q 2441 88 2391 259 
Q 2369 338 2359 363 
Q 2134 144 1878 34 
Q 1622 -75 1331 -75 
Q 819 -75 523 203 
Q 228 481 228 906 
Q 228 1188 362 1408 
Q 497 1628 739 1745 
Q 981 1863 1438 1950 
Q 2053 2066 2291 2166 
L 2291 2253 
Q 2291 2506 2166 2614 
Q 2041 2722 1694 2722 
Q 1459 2722 1328 2630 
Q 1197 2538 1116 2306 
z
M 2291 1594 
Q 2122 1538 1756 1459 
Q 1391 1381 1278 1306 
Q 1106 1184 1106 997 
Q 1106 813 1243 678 
Q 1381 544 1594 544 
Q 1831 544 2047 700 
Q 2206 819 2256 991 
Q 2291 1103 2291 1419 
L 2291 1594 
z
" transform="scale(0.015625)"/>
      <path id="Arial-BoldMT-6e" d="M 3478 0 
L 2600 0 
L 2600 1694 
Q 2600 2231 2544 2389 
Q 2488 2547 2361 2634 
Q 2234 2722 2056 2722 
Q 1828 2722 1647 2597 
Q 1466 2472 1398 2265 
Q 1331 2059 1331 1503 
L 1331 0 
L 453 0 
L 453 3319 
L 1269 3319 
L 1269 2831 
Q 1703 3394 2363 3394 
Q 2653 3394 2893 3289 
Q 3134 3184 3257 3021 
Q 3381 2859 3429 2653 
Q 3478 2447 3478 2063 
L 3478 0 
z
" transform="scale(0.015625)"/>
      <path id="Arial-BoldMT-65" d="M 2381 1056 
L 3256 909 
Q 3088 428 2723 176 
Q 2359 -75 1813 -75 
Q 947 -75 531 491 
Q 203 944 203 1634 
Q 203 2459 634 2926 
Q 1066 3394 1725 3394 
Q 2466 3394 2894 2905 
Q 3322 2416 3303 1406 
L 1103 1406 
Q 1113 1016 1316 798 
Q 1519 581 1822 581 
Q 2028 581 2168 693 
Q 2309 806 2381 1056 
z
M 2431 1944 
Q 2422 2325 2234 2523 
Q 2047 2722 1778 2722 
Q 1491 2722 1303 2513 
Q 1116 2303 1119 1944 
L 2431 1944 
z
" transform="scale(0.015625)"/>
      <path id="Arial-BoldMT-6c" d="M 459 0 
L 459 4581 
L 1338 4581 
L 1338 0 
L 459 0 
z
" transform="scale(0.015625)"/>
      <path id="Arial-BoldMT-20" transform="scale(0.015625)"/>
      <path id="Arial-BoldMT-41" d="M 4597 0 
L 3591 0 
L 3191 1041 
L 1359 1041 
L 981 0 
L 0 0 
L 1784 4581 
L 2763 4581 
L 4597 0 
z
M 2894 1813 
L 2263 3513 
L 1644 1813 
L 2894 1813 
z
" transform="scale(0.015625)"/>
      <path id="Arial-BoldMT-3a" d="M 628 2441 
L 628 3319 
L 1506 3319 
L 1506 2441 
L 628 2441 
z
M 628 0 
L 628 878 
L 1506 878 
L 1506 0 
L 628 0 
z
" transform="scale(0.015625)"/>
      <path id="Arial-BoldMT-54" d="M 1497 0 
L 1497 3806 
L 138 3806 
L 138 4581 
L 3778 4581 
L 3778 3806 
L 2422 3806 
L 2422 0 
L 1497 0 
z
" transform="scale(0.015625)"/>
      <path id="Arial-BoldMT-68" d="M 1334 4581 
L 1334 2897 
Q 1759 3394 2350 3394 
Q 2653 3394 2897 3281 
Q 3141 3169 3264 2994 
Q 3388 2819 3433 2606 
Q 3478 2394 3478 1947 
L 3478 0 
L 2600 0 
L 2600 1753 
Q 2600 2275 2550 2415 
Q 2500 2556 2373 2639 
Q 2247 2722 2056 2722 
Q 1838 2722 1666 2615 
Q 1494 2509 1414 2295 
Q 1334 2081 1334 1663 
L 1334 0 
L 456 0 
L 456 4581 
L 1334 4581 
z
" transform="scale(0.015625)"/>
      <path id="Arial-BoldMT-67" d="M 378 -219 
L 1381 -341 
Q 1406 -516 1497 -581 
Q 1622 -675 1891 -675 
Q 2234 -675 2406 -572 
Q 2522 -503 2581 -350 
Q 2622 -241 2622 53 
L 2622 538 
Q 2228 0 1628 0 
Q 959 0 569 566 
Q 263 1013 263 1678 
Q 263 2513 664 2953 
Q 1066 3394 1663 3394 
Q 2278 3394 2678 2853 
L 2678 3319 
L 3500 3319 
L 3500 341 
Q 3500 -247 3403 -537 
Q 3306 -828 3131 -993 
Q 2956 -1159 2664 -1253 
Q 2372 -1347 1925 -1347 
Q 1081 -1347 728 -1058 
Q 375 -769 375 -325 
Q 375 -281 378 -219 
z
M 1163 1728 
Q 1163 1200 1367 954 
Q 1572 709 1872 709 
Q 2194 709 2416 961 
Q 2638 1213 2638 1706 
Q 2638 2222 2425 2472 
Q 2213 2722 1888 2722 
Q 1572 2722 1367 2476 
Q 1163 2231 1163 1728 
z
" transform="scale(0.015625)"/>
      <path id="Arial-BoldMT-69" d="M 459 3769 
L 459 4581 
L 1338 4581 
L 1338 3769 
L 459 3769 
z
M 459 0 
L 459 3319 
L 1338 3319 
L 1338 0 
L 459 0 
z
" transform="scale(0.015625)"/>
      <path id="Arial-BoldMT-70" d="M 434 3319 
L 1253 3319 
L 1253 2831 
Q 1413 3081 1684 3237 
Q 1956 3394 2288 3394 
Q 2866 3394 3269 2941 
Q 3672 2488 3672 1678 
Q 3672 847 3265 386 
Q 2859 -75 2281 -75 
Q 2006 -75 1782 34 
Q 1559 144 1313 409 
L 1313 -1263 
L 434 -1263 
L 434 3319 
z
M 1303 1716 
Q 1303 1156 1525 889 
Q 1747 622 2066 622 
Q 2372 622 2575 867 
Q 2778 1113 2778 1672 
Q 2778 2194 2568 2447 
Q 2359 2700 2050 2700 
Q 1728 2700 1515 2451 
Q 1303 2203 1303 1716 
z
" transform="scale(0.015625)"/>
     </defs>
     <use xlink:href="#Arial-BoldMT-50"/>
     <use xlink:href="#Arial-BoldMT-61" x="66.699219"/>
     <use xlink:href="#Arial-BoldMT-6e" x="122.314453"/>
     <use xlink:href="#Arial-BoldMT-65" x="183.398438"/>
     <use xlink:href="#Arial-BoldMT-6c" x="239.013672"/>
     <use xlink:href="#Arial-BoldMT-20" x="266.796875"/>
     <use xlink:href="#Arial-BoldMT-41" x="290.830078"/>
     <use xlink:href="#Arial-BoldMT-3a" x="363.046875"/>
     <use xlink:href="#Arial-BoldMT-20" x="396.347656"/>
     <use xlink:href="#Arial-BoldMT-54" x="424.130859"/>
     <use xlink:href="#Arial-BoldMT-68" x="485.214844"/>
     <use xlink:href="#Arial-BoldMT-65" x="546.298828"/>
     <use xlink:href="#Arial-BoldMT-20" x="601.914062"/>
     <use xlink:href="#Arial-BoldMT-41" x="625.947266"/>
     <use xlink:href="#Arial-BoldMT-67" x="698.164062"/>
     <use xlink:href="#Arial-BoldMT-69" x="759.248047"/>
     <use xlink:href="#Arial-BoldMT-6e" x="787.03125"/>
     <use xlink:href="#Arial-BoldMT-67" x="848.115234"/>
     <use xlink:href="#Arial-BoldMT-20" x="909.199219"/>
     <use xlink:href="#Arial-BoldMT-50" x="936.982422"/>
     <use xlink:href="#Arial-BoldMT-69" x="1003.681641"/>
     <use xlink:href="#Arial-BoldMT-70" x="1031.464844"/>
     <use xlink:href="#Arial-BoldMT-65" x="1092.548828"/>
     <use xlink:href="#Arial-BoldMT-6c" x="1148.164062"/>
     <use xlink:href="#Arial-BoldMT-69" x="1175.947266"/>
     <use xlink:href="#Arial-BoldMT-6e" x="1203.730469"/>
     <use xlink:href="#Arial-BoldMT-65" x="1264.814453"/>
    </g>
   </g>
   <g id="text_2">
    <!-- Raw Aged Spectrum -->
    <g transform="translate(128.122656 173.84) scale(0.1 -0.1)">
     <defs>
      <path id="ArialMT-52" d="M 503 0 
L 503 4581 
L 2534 4581 
Q 3147 4581 3465 4457 
Q 3784 4334 3975 4021 
Q 4166 3709 4166 3331 
Q 4166 2844 3850 2509 
Q 3534 2175 2875 2084 
Q 3116 1969 3241 1856 
Q 3506 1613 3744 1247 
L 4541 0 
L 3778 0 
L 3172 953 
Q 2906 1366 2734 1584 
Q 2563 1803 2427 1890 
Q 2291 1978 2150 2013 
Q 2047 2034 1813 2034 
L 1109 2034 
L 1109 0 
L 503 0 
z
M 1109 2559 
L 2413 2559 
Q 2828 2559 3062 2645 
Q 3297 2731 3419 2920 
Q 3541 3109 3541 3331 
Q 3541 3656 3305 3865 
Q 3069 4075 2559 4075 
L 1109 4075 
L 1109 2559 
z
" transform="scale(0.015625)"/>
      <path id="ArialMT-61" d="M 2588 409 
Q 2275 144 1986 34 
Q 1697 -75 1366 -75 
Q 819 -75 525 192 
Q 231 459 231 875 
Q 231 1119 342 1320 
Q 453 1522 633 1644 
Q 813 1766 1038 1828 
Q 1203 1872 1538 1913 
Q 2219 1994 2541 2106 
Q 2544 2222 2544 2253 
Q 2544 2597 2384 2738 
Q 2169 2928 1744 2928 
Q 1347 2928 1158 2789 
Q 969 2650 878 2297 
L 328 2372 
Q 403 2725 575 2942 
Q 747 3159 1072 3276 
Q 1397 3394 1825 3394 
Q 2250 3394 2515 3294 
Q 2781 3194 2906 3042 
Q 3031 2891 3081 2659 
Q 3109 2516 3109 2141 
L 3109 1391 
Q 3109 606 3145 398 
Q 3181 191 3288 0 
L 2700 0 
Q 2613 175 2588 409 
z
M 2541 1666 
Q 2234 1541 1622 1453 
Q 1275 1403 1131 1340 
Q 988 1278 909 1158 
Q 831 1038 831 891 
Q 831 666 1001 516 
Q 1172 366 1500 366 
Q 1825 366 2078 508 
Q 2331 650 2450 897 
Q 2541 1088 2541 1459 
L 2541 1666 
z
" transform="scale(0.015625)"/>
      <path id="ArialMT-77" d="M 1034 0 
L 19 3319 
L 600 3319 
L 1128 1403 
L 1325 691 
Q 1338 744 1497 1375 
L 2025 3319 
L 2603 3319 
L 3100 1394 
L 3266 759 
L 3456 1400 
L 4025 3319 
L 4572 3319 
L 3534 0 
L 2950 0 
L 2422 1988 
L 2294 2553 
L 1622 0 
L 1034 0 
z
" transform="scale(0.015625)"/>
      <path id="ArialMT-20" transform="scale(0.015625)"/>
      <path id="ArialMT-41" d="M -9 0 
L 1750 4581 
L 2403 4581 
L 4278 0 
L 3588 0 
L 3053 1388 
L 1138 1388 
L 634 0 
L -9 0 
z
M 1313 1881 
L 2866 1881 
L 2388 3150 
Q 2169 3728 2063 4100 
Q 1975 3659 1816 3225 
L 1313 1881 
z
" transform="scale(0.015625)"/>
      <path id="ArialMT-67" d="M 319 -275 
L 866 -356 
Q 900 -609 1056 -725 
Q 1266 -881 1628 -881 
Q 2019 -881 2231 -725 
Q 2444 -569 2519 -288 
Q 2563 -116 2559 434 
Q 2191 0 1641 0 
Q 956 0 581 494 
Q 206 988 206 1678 
Q 206 2153 378 2554 
Q 550 2956 876 3175 
Q 1203 3394 1644 3394 
Q 2231 3394 2613 2919 
L 2613 3319 
L 3131 3319 
L 3131 450 
Q 3131 -325 2973 -648 
Q 2816 -972 2473 -1159 
Q 2131 -1347 1631 -1347 
Q 1038 -1347 672 -1080 
Q 306 -813 319 -275 
z
M 784 1719 
Q 784 1066 1043 766 
Q 1303 466 1694 466 
Q 2081 466 2343 764 
Q 2606 1063 2606 1700 
Q 2606 2309 2336 2618 
Q 2066 2928 1684 2928 
Q 1309 2928 1046 2623 
Q 784 2319 784 1719 
z
" transform="scale(0.015625)"/>
      <path id="ArialMT-65" d="M 2694 1069 
L 3275 997 
Q 3138 488 2766 206 
Q 2394 -75 1816 -75 
Q 1088 -75 661 373 
Q 234 822 234 1631 
Q 234 2469 665 2931 
Q 1097 3394 1784 3394 
Q 2450 3394 2872 2941 
Q 3294 2488 3294 1666 
Q 3294 1616 3291 1516 
L 816 1516 
Q 847 969 1125 678 
Q 1403 388 1819 388 
Q 2128 388 2347 550 
Q 2566 713 2694 1069 
z
M 847 1978 
L 2700 1978 
Q 2663 2397 2488 2606 
Q 2219 2931 1791 2931 
Q 1403 2931 1139 2672 
Q 875 2413 847 1978 
z
" transform="scale(0.015625)"/>
      <path id="ArialMT-64" d="M 2575 0 
L 2575 419 
Q 2259 -75 1647 -75 
Q 1250 -75 917 144 
Q 584 363 401 755 
Q 219 1147 219 1656 
Q 219 2153 384 2558 
Q 550 2963 881 3178 
Q 1213 3394 1622 3394 
Q 1922 3394 2156 3267 
Q 2391 3141 2538 2938 
L 2538 4581 
L 3097 4581 
L 3097 0 
L 2575 0 
z
M 797 1656 
Q 797 1019 1065 703 
Q 1334 388 1700 388 
Q 2069 388 2326 689 
Q 2584 991 2584 1609 
Q 2584 2291 2321 2609 
Q 2059 2928 1675 2928 
Q 1300 2928 1048 2622 
Q 797 2316 797 1656 
z
" transform="scale(0.015625)"/>
      <path id="ArialMT-53" d="M 288 1472 
L 859 1522 
Q 900 1178 1048 958 
Q 1197 738 1509 602 
Q 1822 466 2213 466 
Q 2559 466 2825 569 
Q 3091 672 3220 851 
Q 3350 1031 3350 1244 
Q 3350 1459 3225 1620 
Q 3100 1781 2813 1891 
Q 2628 1963 1997 2114 
Q 1366 2266 1113 2400 
Q 784 2572 623 2826 
Q 463 3081 463 3397 
Q 463 3744 659 4045 
Q 856 4347 1234 4503 
Q 1613 4659 2075 4659 
Q 2584 4659 2973 4495 
Q 3363 4331 3572 4012 
Q 3781 3694 3797 3291 
L 3216 3247 
Q 3169 3681 2898 3903 
Q 2628 4125 2100 4125 
Q 1550 4125 1298 3923 
Q 1047 3722 1047 3438 
Q 1047 3191 1225 3031 
Q 1400 2872 2139 2705 
Q 2878 2538 3153 2413 
Q 3553 2228 3743 1945 
Q 3934 1663 3934 1294 
Q 3934 928 3725 604 
Q 3516 281 3123 101 
Q 2731 -78 2241 -78 
Q 1619 -78 1198 103 
Q 778 284 539 648 
Q 300 1013 288 1472 
z
" transform="scale(0.015625)"/>
      <path id="ArialMT-70" d="M 422 -1272 
L 422 3319 
L 934 3319 
L 934 2888 
Q 1116 3141 1344 3267 
Q 1572 3394 1897 3394 
Q 2322 3394 2647 3175 
Q 2972 2956 3137 2557 
Q 3303 2159 3303 1684 
Q 3303 1175 3120 767 
Q 2938 359 2589 142 
Q 2241 -75 1856 -75 
Q 1575 -75 1351 44 
Q 1128 163 984 344 
L 984 -1272 
L 422 -1272 
z
M 931 1641 
Q 931 1000 1190 694 
Q 1450 388 1819 388 
Q 2194 388 2461 705 
Q 2728 1022 2728 1688 
Q 2728 2322 2467 2637 
Q 2206 2953 1844 2953 
Q 1484 2953 1207 2617 
Q 931 2281 931 1641 
z
" transform="scale(0.015625)"/>
      <path id="ArialMT-63" d="M 2588 1216 
L 3141 1144 
Q 3050 572 2676 248 
Q 2303 -75 1759 -75 
Q 1078 -75 664 370 
Q 250 816 250 1647 
Q 250 2184 428 2587 
Q 606 2991 970 3192 
Q 1334 3394 1763 3394 
Q 2303 3394 2647 3120 
Q 2991 2847 3088 2344 
L 2541 2259 
Q 2463 2594 2264 2762 
Q 2066 2931 1784 2931 
Q 1359 2931 1093 2626 
Q 828 2322 828 1663 
Q 828 994 1084 691 
Q 1341 388 1753 388 
Q 2084 388 2306 591 
Q 2528 794 2588 1216 
z
" transform="scale(0.015625)"/>
      <path id="ArialMT-74" d="M 1650 503 
L 1731 6 
Q 1494 -44 1306 -44 
Q 1000 -44 831 53 
Q 663 150 594 308 
Q 525 466 525 972 
L 525 2881 
L 113 2881 
L 113 3319 
L 525 3319 
L 525 4141 
L 1084 4478 
L 1084 3319 
L 1650 3319 
L 1650 2881 
L 1084 2881 
L 1084 941 
Q 1084 700 1114 631 
Q 1144 563 1211 522 
Q 1278 481 1403 481 
Q 1497 481 1650 503 
z
" transform="scale(0.015625)"/>
      <path id="ArialMT-72" d="M 416 0 
L 416 3319 
L 922 3319 
L 922 2816 
Q 1116 3169 1280 3281 
Q 1444 3394 1641 3394 
Q 1925 3394 2219 3213 
L 2025 2691 
Q 1819 2813 1613 2813 
Q 1428 2813 1281 2702 
Q 1134 2591 1072 2394 
Q 978 2094 978 1738 
L 978 0 
L 416 0 
z
" transform="scale(0.015625)"/>
      <path id="ArialMT-75" d="M 2597 0 
L 2597 488 
Q 2209 -75 1544 -75 
Q 1250 -75 995 37 
Q 741 150 617 320 
Q 494 491 444 738 
Q 409 903 409 1263 
L 409 3319 
L 972 3319 
L 972 1478 
Q 972 1038 1006 884 
Q 1059 663 1231 536 
Q 1403 409 1656 409 
Q 1909 409 2131 539 
Q 2353 669 2445 892 
Q 2538 1116 2538 1541 
L 2538 3319 
L 3100 3319 
L 3100 0 
L 2597 0 
z
" transform="scale(0.015625)"/>
      <path id="ArialMT-6d" d="M 422 0 
L 422 3319 
L 925 3319 
L 925 2853 
Q 1081 3097 1340 3245 
Q 1600 3394 1931 3394 
Q 2300 3394 2536 3241 
Q 2772 3088 2869 2813 
Q 3263 3394 3894 3394 
Q 4388 3394 4653 3120 
Q 4919 2847 4919 2278 
L 4919 0 
L 4359 0 
L 4359 2091 
Q 4359 2428 4304 2576 
Q 4250 2725 4106 2815 
Q 3963 2906 3769 2906 
Q 3419 2906 3187 2673 
Q 2956 2441 2956 1928 
L 2956 0 
L 2394 0 
L 2394 2156 
Q 2394 2531 2256 2718 
Q 2119 2906 1806 2906 
Q 1569 2906 1367 2781 
Q 1166 2656 1075 2415 
Q 984 2175 984 1722 
L 984 0 
L 422 0 
z
" transform="scale(0.015625)"/>
     </defs>
     <use xlink:href="#ArialMT-52"/>
     <use xlink:href="#ArialMT-61" x="72.216797"/>
     <use xlink:href="#ArialMT-77" x="127.832031"/>
     <use xlink:href="#ArialMT-20" x="200.048828"/>
     <use xlink:href="#ArialMT-41" x="222.332031"/>
     <use xlink:href="#ArialMT-67" x="289.03125"/>
     <use xlink:href="#ArialMT-65" x="344.646484"/>
     <use xlink:href="#ArialMT-64" x="400.261719"/>
     <use xlink:href="#ArialMT-20" x="455.876953"/>
     <use xlink:href="#ArialMT-53" x="483.660156"/>
     <use xlink:href="#ArialMT-70" x="550.359375"/>
     <use xlink:href="#ArialMT-65" x="605.974609"/>
     <use xlink:href="#ArialMT-63" x="661.589844"/>
     <use xlink:href="#ArialMT-74" x="711.589844"/>
     <use xlink:href="#ArialMT-72" x="739.373047"/>
     <use xlink:href="#ArialMT-75" x="772.673828"/>
     <use xlink:href="#ArialMT-6d" x="828.289062"/>
    </g>
   </g>
   <g id="patch_4">
    <path d="M 232.289319 136.38 
Q 251.398621 136.38 270.507924 136.38 
L 270.507924 130.88 
Q 276.507837 133.88 282.50775 136.88 
Q 276.507837 139.88 270.507924 142.88 
L 270.507924 137.38 
Q 251.398621 137.38 232.289319 137.38 
L 232.289319 136.38 
z
" style="stroke: #000000; stroke-linecap: round"/>
   </g>
   <g id="text_3">
    <!-- CNN -->
    <g transform="translate(320.190469 134.447047) scale(0.09 -0.09)">
     <defs>
      <path id="ArialMT-43" d="M 3763 1606 
L 4369 1453 
Q 4178 706 3683 314 
Q 3188 -78 2472 -78 
Q 1731 -78 1267 223 
Q 803 525 561 1097 
Q 319 1669 319 2325 
Q 319 3041 592 3573 
Q 866 4106 1370 4382 
Q 1875 4659 2481 4659 
Q 3169 4659 3637 4309 
Q 4106 3959 4291 3325 
L 3694 3184 
Q 3534 3684 3231 3912 
Q 2928 4141 2469 4141 
Q 1941 4141 1586 3887 
Q 1231 3634 1087 3207 
Q 944 2781 944 2328 
Q 944 1744 1114 1308 
Q 1284 872 1643 656 
Q 2003 441 2422 441 
Q 2931 441 3284 734 
Q 3638 1028 3763 1606 
z
" transform="scale(0.015625)"/>
      <path id="ArialMT-4e" d="M 488 0 
L 488 4581 
L 1109 4581 
L 3516 984 
L 3516 4581 
L 4097 4581 
L 4097 0 
L 3475 0 
L 1069 3600 
L 1069 0 
L 488 0 
z
" transform="scale(0.015625)"/>
     </defs>
     <use xlink:href="#ArialMT-43"/>
     <use xlink:href="#ArialMT-4e" x="72.216797"/>
     <use xlink:href="#ArialMT-4e" x="144.433594"/>
    </g>
    <!-- Model -->
    <g transform="translate(317.684531 143.966234) scale(0.09 -0.09)">
     <defs>
      <path id="ArialMT-4d" d="M 475 0 
L 475 4581 
L 1388 4581 
L 2472 1338 
Q 2622 884 2691 659 
Q 2769 909 2934 1394 
L 4031 4581 
L 4847 4581 
L 4847 0 
L 4263 0 
L 4263 3834 
L 2931 0 
L 2384 0 
L 1059 3900 
L 1059 0 
L 475 0 
z
" transform="scale(0.015625)"/>
      <path id="ArialMT-6f" d="M 213 1659 
Q 213 2581 725 3025 
Q 1153 3394 1769 3394 
Q 2453 3394 2887 2945 
Q 3322 2497 3322 1706 
Q 3322 1066 3130 698 
Q 2938 331 2570 128 
Q 2203 -75 1769 -75 
Q 1072 -75 642 372 
Q 213 819 213 1659 
z
M 791 1659 
Q 791 1022 1069 705 
Q 1347 388 1769 388 
Q 2188 388 2466 706 
Q 2744 1025 2744 1678 
Q 2744 2294 2464 2611 
Q 2184 2928 1769 2928 
Q 1347 2928 1069 2612 
Q 791 2297 791 1659 
z
" transform="scale(0.015625)"/>
      <path id="ArialMT-6c" d="M 409 0 
L 409 4581 
L 972 4581 
L 972 0 
L 409 0 
z
" transform="scale(0.015625)"/>
     </defs>
     <use xlink:href="#ArialMT-4d"/>
     <use xlink:href="#ArialMT-6f" x="83.300781"/>
     <use xlink:href="#ArialMT-64" x="138.916016"/>
     <use xlink:href="#ArialMT-65" x="194.53125"/>
     <use xlink:href="#ArialMT-6c" x="250.146484"/>
    </g>
   </g>
   <g id="text_4">
    <!-- Feature Extraction -->
    <g transform="translate(297.260625 167.68) scale(0.08 -0.08)">
     <defs>
      <path id="Arial-ItalicMT-46" d="M 291 0 
L 1247 4581 
L 4225 4581 
L 4116 4059 
L 1750 4059 
L 1447 2600 
L 3856 2600 
L 3747 2078 
L 1338 2078 
L 903 0 
L 291 0 
z
" transform="scale(0.015625)"/>
      <path id="Arial-ItalicMT-65" d="M 2650 1128 
L 3200 1072 
Q 3081 663 2654 294 
Q 2228 -75 1638 -75 
Q 1269 -75 961 95 
Q 653 266 492 591 
Q 331 916 331 1331 
Q 331 1875 582 2386 
Q 834 2897 1234 3145 
Q 1634 3394 2100 3394 
Q 2694 3394 3048 3025 
Q 3403 2656 3403 2019 
Q 3403 1775 3359 1519 
L 916 1519 
Q 903 1422 903 1344 
Q 903 878 1117 633 
Q 1331 388 1641 388 
Q 1931 388 2212 578 
Q 2494 769 2650 1128 
z
M 1006 1950 
L 2869 1950 
Q 2872 2038 2872 2075 
Q 2872 2500 2659 2726 
Q 2447 2953 2113 2953 
Q 1750 2953 1451 2703 
Q 1153 2453 1006 1950 
z
" transform="scale(0.015625)"/>
      <path id="Arial-ItalicMT-61" d="M 2450 413 
Q 2156 159 1884 42 
Q 1613 -75 1303 -75 
Q 844 -75 562 195 
Q 281 466 281 888 
Q 281 1166 407 1380 
Q 534 1594 743 1723 
Q 953 1853 1256 1909 
Q 1447 1947 1980 1969 
Q 2513 1991 2744 2081 
Q 2809 2313 2809 2466 
Q 2809 2663 2666 2775 
Q 2469 2931 2091 2931 
Q 1734 2931 1507 2773 
Q 1281 2616 1178 2325 
L 606 2375 
Q 781 2869 1161 3131 
Q 1541 3394 2119 3394 
Q 2734 3394 3094 3100 
Q 3369 2881 3369 2531 
Q 3369 2266 3291 1916 
L 3106 1091 
Q 3019 697 3019 450 
Q 3019 294 3088 0 
L 2516 0 
Q 2469 163 2450 413 
z
M 2659 1681 
Q 2541 1634 2405 1609 
Q 2269 1584 1950 1556 
Q 1456 1513 1253 1445 
Q 1050 1378 947 1231 
Q 844 1084 844 906 
Q 844 669 1008 516 
Q 1172 363 1475 363 
Q 1756 363 2015 511 
Q 2275 659 2425 925 
Q 2575 1191 2659 1681 
z
" transform="scale(0.015625)"/>
      <path id="Arial-ItalicMT-74" d="M 1534 459 
L 1441 -3 
Q 1238 -56 1047 -56 
Q 709 -56 509 109 
Q 359 234 359 450 
Q 359 559 441 953 
L 844 2881 
L 397 2881 
L 488 3319 
L 934 3319 
L 1106 4134 
L 1753 4525 
L 1500 3319 
L 2056 3319 
L 1963 2881 
L 1409 2881 
L 1025 1047 
Q 953 697 953 628 
Q 953 528 1011 475 
Q 1069 422 1200 422 
Q 1388 422 1534 459 
z
" transform="scale(0.015625)"/>
      <path id="Arial-ItalicMT-75" d="M 2478 600 
Q 1881 -75 1256 -75 
Q 872 -75 636 145 
Q 400 366 400 684 
Q 400 894 506 1403 
L 906 3319 
L 1472 3319 
L 1028 1197 
Q 972 931 972 784 
Q 972 597 1086 492 
Q 1200 388 1422 388 
Q 1659 388 1886 503 
Q 2113 619 2277 816 
Q 2441 1013 2544 1281 
Q 2613 1453 2703 1884 
L 3003 3319 
L 3569 3319 
L 2875 0 
L 2353 0 
L 2478 600 
z
" transform="scale(0.015625)"/>
      <path id="Arial-ItalicMT-72" d="M 213 0 
L 906 3319 
L 1406 3319 
L 1266 2641 
Q 1522 3025 1767 3209 
Q 2013 3394 2269 3394 
Q 2438 3394 2684 3272 
L 2453 2747 
Q 2306 2853 2131 2853 
Q 1834 2853 1521 2522 
Q 1209 2191 1031 1331 
L 750 0 
L 213 0 
z
" transform="scale(0.015625)"/>
      <path id="Arial-ItalicMT-20" transform="scale(0.015625)"/>
      <path id="Arial-ItalicMT-45" d="M 288 0 
L 1247 4581 
L 4553 4581 
L 4444 4059 
L 1750 4059 
L 1450 2634 
L 4075 2634 
L 3966 2113 
L 1341 2113 
L 1009 519 
L 3894 519 
L 3784 0 
L 288 0 
z
" transform="scale(0.015625)"/>
      <path id="Arial-ItalicMT-78" d="M -9 0 
L 1434 1684 
L 606 3319 
L 1231 3319 
L 1513 2728 
Q 1669 2397 1794 2094 
L 2750 3319 
L 3441 3319 
L 2047 1641 
L 2884 0 
L 2259 0 
L 1928 675 
Q 1822 891 1688 1209 
L 700 0 
L -9 0 
z
" transform="scale(0.015625)"/>
      <path id="Arial-ItalicMT-63" d="M 2503 1209 
L 3069 1150 
Q 2856 528 2464 226 
Q 2072 -75 1572 -75 
Q 1031 -75 695 275 
Q 359 625 359 1253 
Q 359 1797 575 2322 
Q 791 2847 1192 3120 
Q 1594 3394 2109 3394 
Q 2644 3394 2956 3092 
Q 3269 2791 3269 2294 
L 2713 2256 
Q 2709 2572 2529 2750 
Q 2350 2928 2056 2928 
Q 1716 2928 1466 2712 
Q 1216 2497 1073 2058 
Q 931 1619 931 1213 
Q 931 788 1118 575 
Q 1306 363 1581 363 
Q 1856 363 2107 572 
Q 2359 781 2503 1209 
z
" transform="scale(0.015625)"/>
      <path id="Arial-ItalicMT-69" d="M 1016 3941 
L 1150 4581 
L 1713 4581 
L 1578 3941 
L 1016 3941 
z
M 191 0 
L 884 3319 
L 1450 3319 
L 756 0 
L 191 0 
z
" transform="scale(0.015625)"/>
      <path id="Arial-ItalicMT-6f" d="M 313 1259 
Q 313 2231 884 2869 
Q 1356 3394 2122 3394 
Q 2722 3394 3089 3019 
Q 3456 2644 3456 2006 
Q 3456 1434 3225 942 
Q 2994 450 2567 187 
Q 2141 -75 1669 -75 
Q 1281 -75 964 90 
Q 647 256 480 559 
Q 313 863 313 1259 
z
M 878 1316 
Q 878 847 1103 605 
Q 1328 363 1675 363 
Q 1856 363 2034 436 
Q 2213 509 2366 659 
Q 2519 809 2626 1001 
Q 2734 1194 2800 1416 
Q 2897 1725 2897 2009 
Q 2897 2459 2670 2707 
Q 2444 2956 2100 2956 
Q 1834 2956 1615 2829 
Q 1397 2703 1220 2459 
Q 1044 2216 961 1892 
Q 878 1569 878 1316 
z
" transform="scale(0.015625)"/>
      <path id="Arial-ItalicMT-6e" d="M 213 0 
L 906 3319 
L 1419 3319 
L 1297 2741 
Q 1631 3081 1922 3237 
Q 2213 3394 2516 3394 
Q 2919 3394 3148 3175 
Q 3378 2956 3378 2591 
Q 3378 2406 3297 2009 
L 2875 0 
L 2309 0 
L 2750 2103 
Q 2816 2409 2816 2556 
Q 2816 2722 2702 2825 
Q 2588 2928 2372 2928 
Q 1938 2928 1598 2615 
Q 1259 2303 1100 1544 
L 778 0 
L 213 0 
z
" transform="scale(0.015625)"/>
     </defs>
     <use xlink:href="#Arial-ItalicMT-46"/>
     <use xlink:href="#Arial-ItalicMT-65" x="61.083984"/>
     <use xlink:href="#Arial-ItalicMT-61" x="116.699219"/>
     <use xlink:href="#Arial-ItalicMT-74" x="172.314453"/>
     <use xlink:href="#Arial-ItalicMT-75" x="200.097656"/>
     <use xlink:href="#Arial-ItalicMT-72" x="255.712891"/>
     <use xlink:href="#Arial-ItalicMT-65" x="289.013672"/>
     <use xlink:href="#Arial-ItalicMT-20" x="344.628906"/>
     <use xlink:href="#Arial-ItalicMT-45" x="372.412109"/>
     <use xlink:href="#Arial-ItalicMT-78" x="439.111328"/>
     <use xlink:href="#Arial-ItalicMT-74" x="489.111328"/>
     <use xlink:href="#Arial-ItalicMT-72" x="516.894531"/>
     <use xlink:href="#Arial-ItalicMT-61" x="550.195312"/>
     <use xlink:href="#Arial-ItalicMT-63" x="605.810547"/>
     <use xlink:href="#Arial-ItalicMT-74" x="655.810547"/>
     <use xlink:href="#Arial-ItalicMT-69" x="683.59375"/>
     <use xlink:href="#Arial-ItalicMT-6f" x="705.810547"/>
     <use xlink:href="#Arial-ItalicMT-6e" x="761.425781"/>
    </g>
   </g>
   <g id="patch_5">
    <path d="M 371.789319 136.38 
Q 390.898621 136.38 410.007924 136.38 
L 410.007924 130.88 
Q 416.007837 133.88 422.00775 136.88 
Q 416.007837 139.88 410.007924 142.88 
L 410.007924 137.38 
Q 390.898621 137.38 371.789319 137.38 
L 371.789319 136.38 
z
" style="stroke: #000000; stroke-linecap: round"/>
   </g>
   <g id="text_5">
    <g id="patch_6">
     <path d="M 480.6 175.508125 
C 490.844298 175.508125 500.670396 171.438022 507.914209 164.194209 
C 515.158022 156.950396 519.228125 147.124298 519.228125 136.88 
C 519.228125 126.635702 515.158022 116.809604 507.914209 109.565791 
C 500.670396 102.321978 490.844298 98.251875 480.6 98.251875 
C 470.355702 98.251875 460.529604 102.321978 453.285791 109.565791 
C 446.041978 116.809604 441.971875 126.635702 441.971875 136.88 
C 441.971875 147.124298 446.041978 156.950396 453.285791 164.194209 
C 460.529604 171.438022 470.355702 175.508125 480.6 175.508125 
z
" style="fill: #ffffff; stroke: #000000; stroke-linejoin: miter"/>
    </g>
    <!-- Carbonyl Index -->
    <g transform="translate(446.971875 134.043594) scale(0.1 -0.1)">
     <defs>
      <path id="ArialMT-62" d="M 941 0 
L 419 0 
L 419 4581 
L 981 4581 
L 981 2947 
Q 1338 3394 1891 3394 
Q 2197 3394 2470 3270 
Q 2744 3147 2920 2923 
Q 3097 2700 3197 2384 
Q 3297 2069 3297 1709 
Q 3297 856 2875 390 
Q 2453 -75 1863 -75 
Q 1275 -75 941 416 
L 941 0 
z
M 934 1684 
Q 934 1088 1097 822 
Q 1363 388 1816 388 
Q 2184 388 2453 708 
Q 2722 1028 2722 1663 
Q 2722 2313 2464 2622 
Q 2206 2931 1841 2931 
Q 1472 2931 1203 2611 
Q 934 2291 934 1684 
z
" transform="scale(0.015625)"/>
      <path id="ArialMT-6e" d="M 422 0 
L 422 3319 
L 928 3319 
L 928 2847 
Q 1294 3394 1984 3394 
Q 2284 3394 2536 3286 
Q 2788 3178 2913 3003 
Q 3038 2828 3088 2588 
Q 3119 2431 3119 2041 
L 3119 0 
L 2556 0 
L 2556 2019 
Q 2556 2363 2490 2533 
Q 2425 2703 2258 2804 
Q 2091 2906 1866 2906 
Q 1506 2906 1245 2678 
Q 984 2450 984 1813 
L 984 0 
L 422 0 
z
" transform="scale(0.015625)"/>
      <path id="ArialMT-79" d="M 397 -1278 
L 334 -750 
Q 519 -800 656 -800 
Q 844 -800 956 -737 
Q 1069 -675 1141 -563 
Q 1194 -478 1313 -144 
Q 1328 -97 1363 -6 
L 103 3319 
L 709 3319 
L 1400 1397 
Q 1534 1031 1641 628 
Q 1738 1016 1872 1384 
L 2581 3319 
L 3144 3319 
L 1881 -56 
Q 1678 -603 1566 -809 
Q 1416 -1088 1222 -1217 
Q 1028 -1347 759 -1347 
Q 597 -1347 397 -1278 
z
" transform="scale(0.015625)"/>
      <path id="ArialMT-49" d="M 597 0 
L 597 4581 
L 1203 4581 
L 1203 0 
L 597 0 
z
" transform="scale(0.015625)"/>
      <path id="ArialMT-78" d="M 47 0 
L 1259 1725 
L 138 3319 
L 841 3319 
L 1350 2541 
Q 1494 2319 1581 2169 
Q 1719 2375 1834 2534 
L 2394 3319 
L 3066 3319 
L 1919 1756 
L 3153 0 
L 2463 0 
L 1781 1031 
L 1600 1309 
L 728 0 
L 47 0 
z
" transform="scale(0.015625)"/>
     </defs>
     <use xlink:href="#ArialMT-43"/>
     <use xlink:href="#ArialMT-61" x="72.216797"/>
     <use xlink:href="#ArialMT-72" x="127.832031"/>
     <use xlink:href="#ArialMT-62" x="161.132812"/>
     <use xlink:href="#ArialMT-6f" x="216.748047"/>
     <use xlink:href="#ArialMT-6e" x="272.363281"/>
     <use xlink:href="#ArialMT-79" x="327.978516"/>
     <use xlink:href="#ArialMT-6c" x="377.978516"/>
     <use xlink:href="#ArialMT-20" x="400.195312"/>
     <use xlink:href="#ArialMT-49" x="427.978516"/>
     <use xlink:href="#ArialMT-6e" x="455.761719"/>
     <use xlink:href="#ArialMT-64" x="511.376953"/>
     <use xlink:href="#ArialMT-65" x="566.992188"/>
     <use xlink:href="#ArialMT-78" x="622.607422"/>
    </g>
    <!-- (C=O) ≈ 0.85 -->
    <g transform="translate(451.596875 144.891406) scale(0.1 -0.1)">
     <defs>
      <path id="ArialMT-28" d="M 1497 -1347 
Q 1031 -759 709 28 
Q 388 816 388 1659 
Q 388 2403 628 3084 
Q 909 3875 1497 4659 
L 1900 4659 
Q 1522 4009 1400 3731 
Q 1209 3300 1100 2831 
Q 966 2247 966 1656 
Q 966 153 1900 -1347 
L 1497 -1347 
z
" transform="scale(0.015625)"/>
      <path id="ArialMT-3d" d="M 3381 2694 
L 356 2694 
L 356 3219 
L 3381 3219 
L 3381 2694 
z
M 3381 1303 
L 356 1303 
L 356 1828 
L 3381 1828 
L 3381 1303 
z
" transform="scale(0.015625)"/>
      <path id="ArialMT-4f" d="M 309 2231 
Q 309 3372 921 4017 
Q 1534 4663 2503 4663 
Q 3138 4663 3647 4359 
Q 4156 4056 4423 3514 
Q 4691 2972 4691 2284 
Q 4691 1588 4409 1038 
Q 4128 488 3612 205 
Q 3097 -78 2500 -78 
Q 1853 -78 1343 234 
Q 834 547 571 1087 
Q 309 1628 309 2231 
z
M 934 2222 
Q 934 1394 1379 917 
Q 1825 441 2497 441 
Q 3181 441 3623 922 
Q 4066 1403 4066 2288 
Q 4066 2847 3877 3264 
Q 3688 3681 3323 3911 
Q 2959 4141 2506 4141 
Q 1863 4141 1398 3698 
Q 934 3256 934 2222 
z
" transform="scale(0.015625)"/>
      <path id="ArialMT-29" d="M 791 -1347 
L 388 -1347 
Q 1322 153 1322 1656 
Q 1322 2244 1188 2822 
Q 1081 3291 891 3722 
Q 769 4003 388 4659 
L 791 4659 
Q 1378 3875 1659 3084 
Q 1900 2403 1900 1659 
Q 1900 816 1576 28 
Q 1253 -759 791 -1347 
z
" transform="scale(0.015625)"/>
      <path id="ArialMT-2248" d="M 159 2306 
L 159 2947 
Q 491 3322 1028 3322 
Q 1216 3322 1420 3269 
Q 1625 3216 2009 3050 
Q 2225 2956 2333 2929 
Q 2441 2903 2550 2903 
Q 2753 2903 2970 3025 
Q 3188 3147 3356 3331 
L 3356 2669 
Q 3156 2481 2951 2397 
Q 2747 2313 2491 2313 
Q 2303 2313 2134 2355 
Q 1966 2397 1594 2564 
Q 1222 2731 975 2731 
Q 775 2731 598 2645 
Q 422 2559 159 2306 
z
M 159 1175 
L 159 1816 
Q 491 2191 1028 2191 
Q 1216 2191 1420 2137 
Q 1625 2084 2009 1919 
Q 2225 1828 2333 1800 
Q 2441 1772 2550 1772 
Q 2753 1772 2970 1894 
Q 3188 2016 3356 2200 
L 3356 1538 
Q 3156 1350 2951 1265 
Q 2747 1181 2491 1181 
Q 2303 1181 2134 1225 
Q 1966 1269 1594 1434 
Q 1222 1600 975 1600 
Q 775 1600 598 1514 
Q 422 1428 159 1175 
z
" transform="scale(0.015625)"/>
      <path id="ArialMT-30" d="M 266 2259 
Q 266 3072 433 3567 
Q 600 4063 929 4331 
Q 1259 4600 1759 4600 
Q 2128 4600 2406 4451 
Q 2684 4303 2865 4023 
Q 3047 3744 3150 3342 
Q 3253 2941 3253 2259 
Q 3253 1453 3087 958 
Q 2922 463 2592 192 
Q 2263 -78 1759 -78 
Q 1097 -78 719 397 
Q 266 969 266 2259 
z
M 844 2259 
Q 844 1131 1108 757 
Q 1372 384 1759 384 
Q 2147 384 2411 759 
Q 2675 1134 2675 2259 
Q 2675 3391 2411 3762 
Q 2147 4134 1753 4134 
Q 1366 4134 1134 3806 
Q 844 3388 844 2259 
z
" transform="scale(0.015625)"/>
      <path id="ArialMT-2e" d="M 581 0 
L 581 641 
L 1222 641 
L 1222 0 
L 581 0 
z
" transform="scale(0.015625)"/>
      <path id="ArialMT-38" d="M 1131 2484 
Q 781 2613 612 2850 
Q 444 3088 444 3419 
Q 444 3919 803 4259 
Q 1163 4600 1759 4600 
Q 2359 4600 2725 4251 
Q 3091 3903 3091 3403 
Q 3091 3084 2923 2848 
Q 2756 2613 2416 2484 
Q 2838 2347 3058 2040 
Q 3278 1734 3278 1309 
Q 3278 722 2862 322 
Q 2447 -78 1769 -78 
Q 1091 -78 675 323 
Q 259 725 259 1325 
Q 259 1772 486 2073 
Q 713 2375 1131 2484 
z
M 1019 3438 
Q 1019 3113 1228 2906 
Q 1438 2700 1772 2700 
Q 2097 2700 2305 2904 
Q 2513 3109 2513 3406 
Q 2513 3716 2298 3927 
Q 2084 4138 1766 4138 
Q 1444 4138 1231 3931 
Q 1019 3725 1019 3438 
z
M 838 1322 
Q 838 1081 952 856 
Q 1066 631 1291 507 
Q 1516 384 1775 384 
Q 2178 384 2440 643 
Q 2703 903 2703 1303 
Q 2703 1709 2433 1975 
Q 2163 2241 1756 2241 
Q 1359 2241 1098 1978 
Q 838 1716 838 1322 
z
" transform="scale(0.015625)"/>
      <path id="ArialMT-35" d="M 266 1200 
L 856 1250 
Q 922 819 1161 601 
Q 1400 384 1738 384 
Q 2144 384 2425 690 
Q 2706 997 2706 1503 
Q 2706 1984 2436 2262 
Q 2166 2541 1728 2541 
Q 1456 2541 1237 2417 
Q 1019 2294 894 2097 
L 366 2166 
L 809 4519 
L 3088 4519 
L 3088 3981 
L 1259 3981 
L 1013 2750 
Q 1425 3038 1878 3038 
Q 2478 3038 2890 2622 
Q 3303 2206 3303 1553 
Q 3303 931 2941 478 
Q 2500 -78 1738 -78 
Q 1113 -78 717 272 
Q 322 622 266 1200 
z
" transform="scale(0.015625)"/>
     </defs>
     <use xlink:href="#ArialMT-28"/>
     <use xlink:href="#ArialMT-43" x="33.300781"/>
     <use xlink:href="#ArialMT-3d" x="105.517578"/>
     <use xlink:href="#ArialMT-4f" x="163.916016"/>
     <use xlink:href="#ArialMT-29" x="241.699219"/>
     <use xlink:href="#ArialMT-20" x="275"/>
     <use xlink:href="#ArialMT-2248" x="302.783203"/>
     <use xlink:href="#ArialMT-20" x="357.666016"/>
     <use xlink:href="#ArialMT-30" x="385.449219"/>
     <use xlink:href="#ArialMT-2e" x="441.064453"/>
     <use xlink:href="#ArialMT-38" x="468.847656"/>
     <use xlink:href="#ArialMT-35" x="524.462891"/>
    </g>
   </g>
   <g id="axes_2">
    <g id="line2d_1">
     <path d="M 122.972727 158.397398 
L 123.997521 154.292804 
L 125.022314 156.595866 
L 126.047107 155.292389 
L 127.071901 157.803715 
L 128.096694 152.891049 
L 129.121488 154.754678 
L 130.146281 159.27777 
L 131.171074 154.176684 
L 132.195868 155.728676 
L 133.220661 156.126587 
L 134.245455 155.693962 
L 135.270248 158.675496 
L 136.295041 156.879075 
L 137.319835 155.791217 
L 138.344628 155.817689 
L 139.369421 156.952888 
L 140.394215 157.983302 
L 141.419008 153.677218 
L 142.443802 151.969178 
L 143.468595 151.630458 
L 144.493388 147.863721 
L 145.518182 143.649469 
L 146.542975 139.837255 
L 147.567769 132.628914 
L 148.592562 130.307974 
L 149.617355 121.946667 
L 150.642149 122.340607 
L 151.666942 116.77427 
L 152.691736 114.48 
L 153.716529 114.928947 
L 154.741322 118.08727 
L 155.766116 118.769797 
L 156.790909 123.157115 
L 157.815702 126.598239 
L 158.840496 136.212412 
L 159.865289 136.913069 
L 160.890083 142.362195 
L 161.914876 145.497727 
L 162.939669 149.976629 
L 163.964463 152.438315 
L 164.989256 153.934036 
L 166.01405 159.28 
L 167.038843 155.724436 
L 168.063636 157.246625 
L 169.08843 155.564168 
L 170.113223 158.718024 
L 171.138017 155.128518 
L 172.16281 158.778599 
L 173.187603 155.767043 
L 174.212397 158.008141 
L 175.23719 155.768583 
L 176.261983 154.767802 
L 177.286777 152.271838 
L 178.31157 156.419467 
L 179.336364 156.68527 
L 180.361157 151.858058 
L 181.38595 150.250941 
L 182.410744 149.136716 
L 183.435537 150.850486 
L 184.460331 146.151669 
L 185.485124 143.933805 
L 186.509917 143.514014 
L 187.534711 140.805151 
L 188.559504 135.907304 
L 189.584298 136.339307 
L 190.609091 135.088541 
L 191.633884 134.341713 
L 192.658678 131.406779 
L 193.683471 129.068667 
L 194.708264 132.381257 
L 195.733058 134.447923 
L 196.757851 130.146777 
L 197.782645 133.635895 
L 198.807438 133.876467 
L 199.832231 139.84335 
L 200.857025 139.363011 
L 201.881818 143.576551 
L 202.906612 143.669678 
L 203.931405 147.985071 
L 204.956198 148.359642 
L 205.980992 149.687042 
L 207.005785 150.893529 
L 208.030579 156.229272 
L 209.055372 153.87386 
L 210.080165 154.556855 
L 211.104959 157.089598 
L 212.129752 158.18033 
L 213.154545 157.634891 
L 214.179339 153.36396 
L 215.204132 155.832629 
L 216.228926 155.653769 
L 217.253719 156.971734 
L 218.278512 156.217603 
L 219.303306 155.020275 
L 220.328099 156.063031 
L 221.352893 156.916713 
L 222.377686 154.777264 
L 223.402479 157.512471 
L 224.427273 151.458386 
" clip-path="url(#pcc328f728e)" style="fill: none; stroke: #e63946; stroke-width: 1.5; stroke-linecap: square"/>
    </g>
   </g>
  </g>
  <g id="axes_3">
   <g id="patch_7">
    <path d="M 90 358.64 
L 648 358.64 
Q 675.9 358.64 675.9 352.48 
L 675.9 229.28 
Q 675.9 223.12 648 223.12 
L 90 223.12 
Q 62.1 223.12 62.1 229.28 
L 62.1 352.48 
Q 62.1 358.64 90 358.64 
L 90 358.64 
z
" clip-path="url(#p941a080f80)" style="fill: none; stroke: #457b9d; stroke-width: 1.5; stroke-linejoin: miter"/>
   </g>
   <g id="patch_8">
    <path d="M 313.2 278.56 
L 357.84 278.56 
L 346.68 315.52 
L 324.36 315.52 
z
" clip-path="url(#p941a080f80)" style="fill: #dddddd; stroke: #000000; stroke-linejoin: miter"/>
   </g>
   <g id="text_6">
    <!-- Panel B: Nano-Enhancement Pipeline -->
    <g style="fill: #457b9d" transform="translate(117.9 241.6) scale(0.12 -0.12)">
     <defs>
      <path id="Arial-BoldMT-42" d="M 469 4581 
L 2300 4581 
Q 2844 4581 3111 4536 
Q 3378 4491 3589 4347 
Q 3800 4203 3940 3964 
Q 4081 3725 4081 3428 
Q 4081 3106 3907 2837 
Q 3734 2569 3438 2434 
Q 3856 2313 4081 2019 
Q 4306 1725 4306 1328 
Q 4306 1016 4161 720 
Q 4016 425 3764 248 
Q 3513 72 3144 31 
Q 2913 6 2028 0 
L 469 0 
L 469 4581 
z
M 1394 3819 
L 1394 2759 
L 2000 2759 
Q 2541 2759 2672 2775 
Q 2909 2803 3045 2939 
Q 3181 3075 3181 3297 
Q 3181 3509 3064 3642 
Q 2947 3775 2716 3803 
Q 2578 3819 1925 3819 
L 1394 3819 
z
M 1394 1997 
L 1394 772 
L 2250 772 
Q 2750 772 2884 800 
Q 3091 838 3220 983 
Q 3350 1128 3350 1372 
Q 3350 1578 3250 1722 
Q 3150 1866 2961 1931 
Q 2772 1997 2141 1997 
L 1394 1997 
z
" transform="scale(0.015625)"/>
      <path id="Arial-BoldMT-4e" d="M 475 0 
L 475 4581 
L 1375 4581 
L 3250 1522 
L 3250 4581 
L 4109 4581 
L 4109 0 
L 3181 0 
L 1334 2988 
L 1334 0 
L 475 0 
z
" transform="scale(0.015625)"/>
      <path id="Arial-BoldMT-6f" d="M 256 1706 
Q 256 2144 472 2553 
Q 688 2963 1083 3178 
Q 1478 3394 1966 3394 
Q 2719 3394 3200 2905 
Q 3681 2416 3681 1669 
Q 3681 916 3195 420 
Q 2709 -75 1972 -75 
Q 1516 -75 1102 131 
Q 688 338 472 736 
Q 256 1134 256 1706 
z
M 1156 1659 
Q 1156 1166 1390 903 
Q 1625 641 1969 641 
Q 2313 641 2545 903 
Q 2778 1166 2778 1666 
Q 2778 2153 2545 2415 
Q 2313 2678 1969 2678 
Q 1625 2678 1390 2415 
Q 1156 2153 1156 1659 
z
" transform="scale(0.015625)"/>
      <path id="Arial-BoldMT-2d" d="M 359 1222 
L 359 2100 
L 2084 2100 
L 2084 1222 
L 359 1222 
z
" transform="scale(0.015625)"/>
      <path id="Arial-BoldMT-45" d="M 466 0 
L 466 4581 
L 3863 4581 
L 3863 3806 
L 1391 3806 
L 1391 2791 
L 3691 2791 
L 3691 2019 
L 1391 2019 
L 1391 772 
L 3950 772 
L 3950 0 
L 466 0 
z
" transform="scale(0.015625)"/>
      <path id="Arial-BoldMT-63" d="M 3353 2338 
L 2488 2181 
Q 2444 2441 2289 2572 
Q 2134 2703 1888 2703 
Q 1559 2703 1364 2476 
Q 1169 2250 1169 1719 
Q 1169 1128 1367 884 
Q 1566 641 1900 641 
Q 2150 641 2309 783 
Q 2469 925 2534 1272 
L 3397 1125 
Q 3263 531 2881 228 
Q 2500 -75 1859 -75 
Q 1131 -75 698 384 
Q 266 844 266 1656 
Q 266 2478 700 2936 
Q 1134 3394 1875 3394 
Q 2481 3394 2839 3133 
Q 3197 2872 3353 2338 
z
" transform="scale(0.015625)"/>
      <path id="Arial-BoldMT-6d" d="M 394 3319 
L 1203 3319 
L 1203 2866 
Q 1638 3394 2238 3394 
Q 2556 3394 2790 3262 
Q 3025 3131 3175 2866 
Q 3394 3131 3647 3262 
Q 3900 3394 4188 3394 
Q 4553 3394 4806 3245 
Q 5059 3097 5184 2809 
Q 5275 2597 5275 2122 
L 5275 0 
L 4397 0 
L 4397 1897 
Q 4397 2391 4306 2534 
Q 4184 2722 3931 2722 
Q 3747 2722 3584 2609 
Q 3422 2497 3350 2280 
Q 3278 2063 3278 1594 
L 3278 0 
L 2400 0 
L 2400 1819 
Q 2400 2303 2353 2443 
Q 2306 2584 2207 2653 
Q 2109 2722 1941 2722 
Q 1738 2722 1575 2612 
Q 1413 2503 1342 2297 
Q 1272 2091 1272 1613 
L 1272 0 
L 394 0 
L 394 3319 
z
" transform="scale(0.015625)"/>
      <path id="Arial-BoldMT-74" d="M 1981 3319 
L 1981 2619 
L 1381 2619 
L 1381 1281 
Q 1381 875 1398 808 
Q 1416 741 1477 697 
Q 1538 653 1625 653 
Q 1747 653 1978 738 
L 2053 56 
Q 1747 -75 1359 -75 
Q 1122 -75 931 4 
Q 741 84 652 211 
Q 563 338 528 553 
Q 500 706 500 1172 
L 500 2619 
L 97 2619 
L 97 3319 
L 500 3319 
L 500 3978 
L 1381 4491 
L 1381 3319 
L 1981 3319 
z
" transform="scale(0.015625)"/>
     </defs>
     <use xlink:href="#Arial-BoldMT-50"/>
     <use xlink:href="#Arial-BoldMT-61" x="66.699219"/>
     <use xlink:href="#Arial-BoldMT-6e" x="122.314453"/>
     <use xlink:href="#Arial-BoldMT-65" x="183.398438"/>
     <use xlink:href="#Arial-BoldMT-6c" x="239.013672"/>
     <use xlink:href="#Arial-BoldMT-20" x="266.796875"/>
     <use xlink:href="#Arial-BoldMT-42" x="294.580078"/>
     <use xlink:href="#Arial-BoldMT-3a" x="366.796875"/>
     <use xlink:href="#Arial-BoldMT-20" x="400.097656"/>
     <use xlink:href="#Arial-BoldMT-4e" x="427.880859"/>
     <use xlink:href="#Arial-BoldMT-61" x="500.097656"/>
     <use xlink:href="#Arial-BoldMT-6e" x="555.712891"/>
     <use xlink:href="#Arial-BoldMT-6f" x="616.796875"/>
     <use xlink:href="#Arial-BoldMT-2d" x="677.880859"/>
     <use xlink:href="#Arial-BoldMT-45" x="711.181641"/>
     <use xlink:href="#Arial-BoldMT-6e" x="777.880859"/>
     <use xlink:href="#Arial-BoldMT-68" x="838.964844"/>
     <use xlink:href="#Arial-BoldMT-61" x="900.048828"/>
     <use xlink:href="#Arial-BoldMT-6e" x="955.664062"/>
     <use xlink:href="#Arial-BoldMT-63" x="1016.748047"/>
     <use xlink:href="#Arial-BoldMT-65" x="1072.363281"/>
     <use xlink:href="#Arial-BoldMT-6d" x="1127.978516"/>
     <use xlink:href="#Arial-BoldMT-65" x="1216.894531"/>
     <use xlink:href="#Arial-BoldMT-6e" x="1272.509766"/>
     <use xlink:href="#Arial-BoldMT-74" x="1333.59375"/>
     <use xlink:href="#Arial-BoldMT-20" x="1366.894531"/>
     <use xlink:href="#Arial-BoldMT-50" x="1394.677734"/>
     <use xlink:href="#Arial-BoldMT-69" x="1461.376953"/>
     <use xlink:href="#Arial-BoldMT-70" x="1489.160156"/>
     <use xlink:href="#Arial-BoldMT-65" x="1550.244141"/>
     <use xlink:href="#Arial-BoldMT-6c" x="1605.859375"/>
     <use xlink:href="#Arial-BoldMT-69" x="1633.642578"/>
     <use xlink:href="#Arial-BoldMT-6e" x="1661.425781"/>
     <use xlink:href="#Arial-BoldMT-65" x="1722.509766"/>
    </g>
   </g>
   <g id="text_7">
    <!-- Weak Signal (&lt;SNR 2) -->
    <g transform="translate(123.353906 334) scale(0.1 -0.1)">
     <defs>
      <path id="ArialMT-57" d="M 1294 0 
L 78 4581 
L 700 4581 
L 1397 1578 
Q 1509 1106 1591 641 
Q 1766 1375 1797 1488 
L 2669 4581 
L 3400 4581 
L 4056 2263 
Q 4303 1400 4413 641 
Q 4500 1075 4641 1638 
L 5359 4581 
L 5969 4581 
L 4713 0 
L 4128 0 
L 3163 3491 
Q 3041 3928 3019 4028 
Q 2947 3713 2884 3491 
L 1913 0 
L 1294 0 
z
" transform="scale(0.015625)"/>
      <path id="ArialMT-6b" d="M 425 0 
L 425 4581 
L 988 4581 
L 988 1969 
L 2319 3319 
L 3047 3319 
L 1778 2088 
L 3175 0 
L 2481 0 
L 1384 1697 
L 988 1316 
L 988 0 
L 425 0 
z
" transform="scale(0.015625)"/>
      <path id="ArialMT-69" d="M 425 3934 
L 425 4581 
L 988 4581 
L 988 3934 
L 425 3934 
z
M 425 0 
L 425 3319 
L 988 3319 
L 988 0 
L 425 0 
z
" transform="scale(0.015625)"/>
      <path id="ArialMT-3c" d="M 350 2003 
L 350 2528 
L 3384 3809 
L 3384 3250 
L 978 2263 
L 3384 1266 
L 3384 706 
L 350 2003 
z
" transform="scale(0.015625)"/>
      <path id="ArialMT-32" d="M 3222 541 
L 3222 0 
L 194 0 
Q 188 203 259 391 
Q 375 700 629 1000 
Q 884 1300 1366 1694 
Q 2113 2306 2375 2664 
Q 2638 3022 2638 3341 
Q 2638 3675 2398 3904 
Q 2159 4134 1775 4134 
Q 1369 4134 1125 3890 
Q 881 3647 878 3216 
L 300 3275 
Q 359 3922 746 4261 
Q 1134 4600 1788 4600 
Q 2447 4600 2831 4234 
Q 3216 3869 3216 3328 
Q 3216 3053 3103 2787 
Q 2991 2522 2730 2228 
Q 2469 1934 1863 1422 
Q 1356 997 1212 845 
Q 1069 694 975 541 
L 3222 541 
z
" transform="scale(0.015625)"/>
     </defs>
     <use xlink:href="#ArialMT-57"/>
     <use xlink:href="#ArialMT-65" x="92.634766"/>
     <use xlink:href="#ArialMT-61" x="148.25"/>
     <use xlink:href="#ArialMT-6b" x="203.865234"/>
     <use xlink:href="#ArialMT-20" x="253.865234"/>
     <use xlink:href="#ArialMT-53" x="281.648438"/>
     <use xlink:href="#ArialMT-69" x="348.347656"/>
     <use xlink:href="#ArialMT-67" x="370.564453"/>
     <use xlink:href="#ArialMT-6e" x="426.179688"/>
     <use xlink:href="#ArialMT-61" x="481.794922"/>
     <use xlink:href="#ArialMT-6c" x="537.410156"/>
     <use xlink:href="#ArialMT-20" x="559.626953"/>
     <use xlink:href="#ArialMT-28" x="587.410156"/>
     <use xlink:href="#ArialMT-3c" x="620.710938"/>
     <use xlink:href="#ArialMT-53" x="679.109375"/>
     <use xlink:href="#ArialMT-4e" x="745.808594"/>
     <use xlink:href="#ArialMT-52" x="818.025391"/>
     <use xlink:href="#ArialMT-20" x="890.242188"/>
     <use xlink:href="#ArialMT-32" x="918.025391"/>
     <use xlink:href="#ArialMT-29" x="973.640625"/>
    </g>
   </g>
   <g id="patch_9">
    <path d="M 229.5 296.54 
Q 251.400751 296.54 273.301501 296.54 
L 273.301501 291.04 
Q 279.300751 294.04 285.3 297.04 
Q 279.300751 300.04 273.301501 303.04 
L 273.301501 297.54 
Q 251.400751 297.54 229.5 297.54 
L 229.5 296.54 
z
" style="stroke: #000000; stroke-linecap: round"/>
   </g>
   <g id="text_8">
    <!-- Denoising -->
    <g transform="translate(317.731875 319.3085) scale(0.08 -0.08)">
     <defs>
      <path id="Arial-ItalicMT-44" d="M 284 0 
L 1241 4581 
L 2622 4581 
Q 3119 4581 3381 4509 
Q 3756 4413 4022 4164 
Q 4288 3916 4422 3544 
Q 4556 3172 4556 2709 
Q 4556 2156 4389 1701 
Q 4222 1247 3951 901 
Q 3681 556 3386 361 
Q 3091 166 2688 72 
Q 2381 0 1934 0 
L 284 0 
z
M 1006 519 
L 1731 519 
Q 2222 519 2603 609 
Q 2841 666 3009 775 
Q 3231 916 3413 1147 
Q 3650 1453 3792 1845 
Q 3934 2238 3934 2738 
Q 3934 3294 3740 3592 
Q 3547 3891 3247 3988 
Q 3025 4059 2556 4059 
L 1747 4059 
L 1006 519 
z
" transform="scale(0.015625)"/>
      <path id="Arial-ItalicMT-73" d="M 266 1134 
L 831 1169 
Q 831 925 906 753 
Q 981 581 1182 472 
Q 1384 363 1653 363 
Q 2028 363 2215 513 
Q 2403 663 2403 866 
Q 2403 1013 2291 1144 
Q 2175 1275 1726 1467 
Q 1278 1659 1153 1738 
Q 944 1866 837 2039 
Q 731 2213 731 2438 
Q 731 2831 1043 3112 
Q 1356 3394 1919 3394 
Q 2544 3394 2870 3105 
Q 3197 2816 3209 2344 
L 2656 2306 
Q 2644 2606 2444 2781 
Q 2244 2956 1878 2956 
Q 1584 2956 1421 2822 
Q 1259 2688 1259 2531 
Q 1259 2375 1400 2256 
Q 1494 2175 1884 2006 
Q 2534 1725 2703 1563 
Q 2972 1303 2972 931 
Q 2972 684 2820 446 
Q 2669 209 2358 67 
Q 2047 -75 1625 -75 
Q 1050 -75 647 209 
Q 244 494 266 1134 
z
" transform="scale(0.015625)"/>
      <path id="Arial-ItalicMT-67" d="M 181 -300 
L 753 -353 
Q 747 -547 800 -644 
Q 853 -741 969 -794 
Q 1122 -863 1366 -863 
Q 1878 -863 2103 -597 
Q 2250 -419 2375 178 
L 2431 447 
Q 1991 0 1494 0 
Q 991 0 652 370 
Q 313 741 313 1419 
Q 313 1978 580 2447 
Q 847 2916 1215 3155 
Q 1584 3394 1975 3394 
Q 2628 3394 2981 2775 
L 3094 3319 
L 3613 3319 
L 2944 116 
Q 2834 -413 2656 -708 
Q 2478 -1003 2161 -1165 
Q 1844 -1328 1428 -1328 
Q 1028 -1328 739 -1225 
Q 450 -1122 308 -923 
Q 166 -725 166 -469 
Q 166 -391 181 -300 
z
M 888 1469 
Q 888 1128 953 956 
Q 1047 716 1220 589 
Q 1394 463 1606 463 
Q 1884 463 2159 658 
Q 2434 853 2604 1262 
Q 2775 1672 2775 2044 
Q 2775 2453 2548 2695 
Q 2322 2938 1988 2938 
Q 1781 2938 1587 2827 
Q 1394 2716 1226 2489 
Q 1059 2263 973 1947 
Q 888 1631 888 1469 
z
" transform="scale(0.015625)"/>
     </defs>
     <use xlink:href="#Arial-ItalicMT-44"/>
     <use xlink:href="#Arial-ItalicMT-65" x="72.216797"/>
     <use xlink:href="#Arial-ItalicMT-6e" x="127.832031"/>
     <use xlink:href="#Arial-ItalicMT-6f" x="183.447266"/>
     <use xlink:href="#Arial-ItalicMT-69" x="239.0625"/>
     <use xlink:href="#Arial-ItalicMT-73" x="261.279297"/>
     <use xlink:href="#Arial-ItalicMT-69" x="311.279297"/>
     <use xlink:href="#Arial-ItalicMT-6e" x="333.496094"/>
     <use xlink:href="#Arial-ItalicMT-67" x="389.111328"/>
    </g>
    <!-- Autoencoder -->
    <g transform="translate(312.838125 327.84) scale(0.08 -0.08)">
     <defs>
      <path id="Arial-ItalicMT-41" d="M -128 0 
L 2469 4581 
L 3191 4581 
L 3947 0 
L 3353 0 
L 3131 1319 
L 1278 1319 
L 544 0 
L -128 0 
z
M 1541 1791 
L 3056 1791 
L 2878 2941 
Q 2775 3625 2750 4081 
Q 2594 3688 2294 3147 
L 1541 1791 
z
" transform="scale(0.015625)"/>
      <path id="Arial-ItalicMT-64" d="M 2450 481 
Q 1966 -75 1438 -75 
Q 966 -75 652 273 
Q 338 622 338 1284 
Q 338 1891 586 2392 
Q 834 2894 1207 3144 
Q 1581 3394 1956 3394 
Q 2575 3394 2891 2797 
L 3266 4581 
L 3828 4581 
L 2872 0 
L 2350 0 
L 2450 481 
z
M 900 1391 
Q 900 1044 969 844 
Q 1038 644 1203 511 
Q 1369 378 1600 378 
Q 1984 378 2297 778 
Q 2716 1309 2716 2091 
Q 2716 2484 2509 2706 
Q 2303 2928 1991 2928 
Q 1788 2928 1620 2837 
Q 1453 2747 1289 2530 
Q 1125 2313 1012 1978 
Q 900 1644 900 1391 
z
" transform="scale(0.015625)"/>
     </defs>
     <use xlink:href="#Arial-ItalicMT-41"/>
     <use xlink:href="#Arial-ItalicMT-75" x="66.699219"/>
     <use xlink:href="#Arial-ItalicMT-74" x="122.314453"/>
     <use xlink:href="#Arial-ItalicMT-6f" x="150.097656"/>
     <use xlink:href="#Arial-ItalicMT-65" x="205.712891"/>
     <use xlink:href="#Arial-ItalicMT-6e" x="261.328125"/>
     <use xlink:href="#Arial-ItalicMT-63" x="316.943359"/>
     <use xlink:href="#Arial-ItalicMT-6f" x="366.943359"/>
     <use xlink:href="#Arial-ItalicMT-64" x="422.558594"/>
     <use xlink:href="#Arial-ItalicMT-65" x="478.173828"/>
     <use xlink:href="#Arial-ItalicMT-72" x="533.789062"/>
    </g>
   </g>
   <g id="patch_10">
    <path d="M 369 296.54 
Q 390.900751 296.54 412.801501 296.54 
L 412.801501 291.04 
Q 418.800751 294.04 424.8 297.04 
Q 418.800751 300.04 412.801501 303.04 
L 412.801501 297.54 
Q 390.900751 297.54 369 297.54 
L 369 296.54 
z
" style="stroke: #000000; stroke-linecap: round"/>
   </g>
   <g id="text_9">
    <!-- Recovered Signature -->
    <g transform="translate(461.530469 334) scale(0.1 -0.1)">
     <defs>
      <path id="ArialMT-76" d="M 1344 0 
L 81 3319 
L 675 3319 
L 1388 1331 
Q 1503 1009 1600 663 
Q 1675 925 1809 1294 
L 2547 3319 
L 3125 3319 
L 1869 0 
L 1344 0 
z
" transform="scale(0.015625)"/>
     </defs>
     <use xlink:href="#ArialMT-52"/>
     <use xlink:href="#ArialMT-65" x="72.216797"/>
     <use xlink:href="#ArialMT-63" x="127.832031"/>
     <use xlink:href="#ArialMT-6f" x="177.832031"/>
     <use xlink:href="#ArialMT-76" x="233.447266"/>
     <use xlink:href="#ArialMT-65" x="283.447266"/>
     <use xlink:href="#ArialMT-72" x="339.0625"/>
     <use xlink:href="#ArialMT-65" x="372.363281"/>
     <use xlink:href="#ArialMT-64" x="427.978516"/>
     <use xlink:href="#ArialMT-20" x="483.59375"/>
     <use xlink:href="#ArialMT-53" x="511.376953"/>
     <use xlink:href="#ArialMT-69" x="578.076172"/>
     <use xlink:href="#ArialMT-67" x="600.292969"/>
     <use xlink:href="#ArialMT-6e" x="655.908203"/>
     <use xlink:href="#ArialMT-61" x="711.523438"/>
     <use xlink:href="#ArialMT-74" x="767.138672"/>
     <use xlink:href="#ArialMT-75" x="794.921875"/>
     <use xlink:href="#ArialMT-72" x="850.537109"/>
     <use xlink:href="#ArialMT-65" x="883.837891"/>
    </g>
   </g>
   <g id="axes_4">
    <g id="line2d_2">
     <path d="M 122.972727 321.69846 
L 123.997521 322.537329 
L 125.022314 321.401093 
L 126.047107 321.705585 
L 127.071901 322.151824 
L 128.096694 321.449834 
L 129.121488 321.352915 
L 130.146281 321.836899 
L 131.171074 322.560751 
L 132.195868 321.438558 
L 133.220661 321.904258 
L 134.245455 321.3446 
L 135.270248 321.012727 
L 136.295041 321.376347 
L 137.319835 321.63713 
L 138.344628 321.668398 
L 139.369421 322.414698 
L 140.394215 321.72903 
L 141.419008 321.790001 
L 142.443802 321.34373 
L 143.468595 321.286471 
L 144.493388 321.918804 
L 145.518182 320.947239 
L 146.542975 321.868206 
L 147.567769 322.186992 
L 148.592562 322.283059 
L 149.617355 321.078557 
L 150.642149 322.129328 
L 151.666942 322.188992 
L 152.691736 321.216436 
L 153.716529 321.299896 
L 154.741322 321.678144 
L 155.766116 321.948262 
L 156.790909 321.711023 
L 157.815702 321.549791 
L 158.840496 321.659911 
L 159.865289 321.253972 
L 160.890083 321.616761 
L 161.914876 322.000009 
L 162.939669 321.357947 
L 163.964463 321.623555 
L 164.989256 321.649128 
L 166.01405 321.581395 
L 167.038843 321.025669 
L 168.063636 320.863988 
L 169.08843 321.769301 
L 170.113223 320.990961 
L 171.138017 320.738443 
L 172.16281 321.588711 
L 173.187603 318.800295 
L 174.212397 320.247224 
L 175.23719 319.257003 
L 176.261983 320.025938 
L 177.286777 320.704409 
L 178.31157 322.020144 
L 179.336364 321.71425 
L 180.361157 321.433239 
L 181.38595 321.254803 
L 182.410744 321.824554 
L 183.435537 321.99851 
L 184.460331 321.810033 
L 185.485124 322.157657 
L 186.509917 320.625939 
L 187.534711 321.721593 
L 188.559504 322.204856 
L 189.584298 322.243638 
L 190.609091 321.893598 
L 191.633884 322.708569 
L 192.658678 321.890403 
L 193.683471 321.281789 
L 194.708264 321.339527 
L 195.733058 322.101734 
L 196.757851 322.2063 
L 197.782645 321.593201 
L 198.807438 321.885222 
L 199.832231 320.72875 
L 200.857025 321.580627 
L 201.881818 320.904598 
L 202.906612 321.336413 
L 203.931405 321.44606 
L 204.956198 321.148892 
L 205.980992 321.609445 
L 207.005785 321.338604 
L 208.030579 321.488802 
L 209.055372 320.91883 
L 210.080165 321.736609 
L 211.104959 322.314172 
L 212.129752 321.955574 
L 213.154545 321.504549 
L 214.179339 322.182418 
L 215.204132 321.872018 
L 216.228926 321.531031 
L 217.253719 321.823384 
L 218.278512 320.72457 
L 219.303306 322.204027 
L 220.328099 322.671754 
L 221.352893 321.691162 
L 222.377686 321.196268 
L 223.402479 321.439985 
L 224.427273 322.313942 
" clip-path="url(#p481aad7d92)" style="fill: none; stroke: #808080; stroke-opacity: 0.7; stroke-width: 1.5; stroke-linecap: square"/>
    </g>
   </g>
   <g id="axes_5">
    <g id="line2d_3">
     <path d="M 457.772727 321.68 
L 458.797521 321.68 
L 459.822314 321.68 
L 460.847107 321.68 
L 461.871901 321.68 
L 462.896694 321.68 
L 463.921488 321.68 
L 464.946281 321.68 
L 465.971074 321.68 
L 466.995868 321.68 
L 468.020661 321.68 
L 469.045455 321.68 
L 470.070248 321.68 
L 471.095041 321.68 
L 472.119835 321.68 
L 473.144628 321.68 
L 474.169421 321.68 
L 475.194215 321.68 
L 476.219008 321.68 
L 477.243802 321.68 
L 478.268595 321.68 
L 479.293388 321.68 
L 480.318182 321.68 
L 481.342975 321.68 
L 482.367769 321.68 
L 483.392562 321.68 
L 484.417355 321.68 
L 485.442149 321.68 
L 486.466942 321.68 
L 487.491736 321.68 
L 488.516529 321.68 
L 489.541322 321.679999 
L 490.566116 321.679993 
L 491.590909 321.679959 
L 492.615702 321.679789 
L 493.640496 321.679026 
L 494.665289 321.675935 
L 495.690083 321.664686 
L 496.714876 321.627901 
L 497.739669 321.51995 
L 498.764463 321.236015 
L 499.789256 320.567834 
L 500.81405 319.164296 
L 501.838843 316.541478 
L 502.863636 312.202241 
L 503.88843 305.894371 
L 504.913223 297.938571 
L 505.938017 289.436619 
L 506.96281 282.137597 
L 507.987603 277.890065 
L 509.012397 277.890065 
L 510.03719 282.137597 
L 511.061983 289.436619 
L 512.086777 297.938571 
L 513.11157 305.894371 
L 514.136364 312.202241 
L 515.161157 316.541478 
L 516.18595 319.164296 
L 517.210744 320.567834 
L 518.235537 321.236015 
L 519.260331 321.51995 
L 520.285124 321.627901 
L 521.309917 321.664686 
L 522.334711 321.675935 
L 523.359504 321.679026 
L 524.384298 321.679789 
L 525.409091 321.679959 
L 526.433884 321.679993 
L 527.458678 321.679999 
L 528.483471 321.68 
L 529.508264 321.68 
L 530.533058 321.68 
L 531.557851 321.68 
L 532.582645 321.68 
L 533.607438 321.68 
L 534.632231 321.68 
L 535.657025 321.68 
L 536.681818 321.68 
L 537.706612 321.68 
L 538.731405 321.68 
L 539.756198 321.68 
L 540.780992 321.68 
L 541.805785 321.68 
L 542.830579 321.68 
L 543.855372 321.68 
L 544.880165 321.68 
L 545.904959 321.68 
L 546.929752 321.68 
L 547.954545 321.68 
L 548.979339 321.68 
L 550.004132 321.68 
L 551.028926 321.68 
L 552.053719 321.68 
L 553.078512 321.68 
L 554.103306 321.68 
L 555.128099 321.68 
L 556.152893 321.68 
L 557.177686 321.68 
L 558.202479 321.68 
L 559.227273 321.68 
" clip-path="url(#pa0e3ff44b5)" style="fill: none; stroke: #457b9d; stroke-width: 1.5; stroke-linecap: square"/>
    </g>
   </g>
  </g>
  <g id="axes_6">
   <g id="patch_11">
    <path d="M 90 518.8 
L 648 518.8 
Q 675.9 518.8 675.9 512.64 
L 675.9 389.44 
Q 675.9 383.28 648 383.28 
L 90 383.28 
Q 62.1 383.28 62.1 389.44 
L 62.1 512.64 
Q 62.1 518.8 90 518.8 
L 90 518.8 
z
" clip-path="url(#pa78e01d5f7)" style="fill: none; stroke: #2a9d8f; stroke-width: 1.5; stroke-linejoin: miter"/>
   </g>
   <g id="patch_12">
    <path d="M 335.52 444.88 
L 287.195782 463.36 
L 383.844218 463.36 
z
" clip-path="url(#pa78e01d5f7)" style="fill: #dddddd; stroke: #000000; stroke-linejoin: miter"/>
   </g>
   <g id="text_10">
    <!-- Panel C: Mixture Unmixing Pipeline -->
    <g style="fill: #2a9d8f" transform="translate(117.9 401.76) scale(0.12 -0.12)">
     <defs>
      <path id="Arial-BoldMT-43" d="M 3397 1684 
L 4294 1400 
Q 4088 650 3608 286 
Q 3128 -78 2391 -78 
Q 1478 -78 890 545 
Q 303 1169 303 2250 
Q 303 3394 893 4026 
Q 1484 4659 2447 4659 
Q 3288 4659 3813 4163 
Q 4125 3869 4281 3319 
L 3366 3100 
Q 3284 3456 3026 3662 
Q 2769 3869 2400 3869 
Q 1891 3869 1573 3503 
Q 1256 3138 1256 2319 
Q 1256 1450 1568 1081 
Q 1881 713 2381 713 
Q 2750 713 3015 947 
Q 3281 1181 3397 1684 
z
" transform="scale(0.015625)"/>
      <path id="Arial-BoldMT-4d" d="M 453 0 
L 453 4581 
L 1838 4581 
L 2669 1456 
L 3491 4581 
L 4878 4581 
L 4878 0 
L 4019 0 
L 4019 3606 
L 3109 0 
L 2219 0 
L 1313 3606 
L 1313 0 
L 453 0 
z
" transform="scale(0.015625)"/>
      <path id="Arial-BoldMT-78" d="M 38 0 
L 1234 1709 
L 88 3319 
L 1159 3319 
L 1747 2406 
L 2366 3319 
L 3397 3319 
L 2272 1747 
L 3500 0 
L 2422 0 
L 1747 1028 
L 1066 0 
L 38 0 
z
" transform="scale(0.015625)"/>
      <path id="Arial-BoldMT-75" d="M 2644 0 
L 2644 497 
Q 2463 231 2167 78 
Q 1872 -75 1544 -75 
Q 1209 -75 943 72 
Q 678 219 559 484 
Q 441 750 441 1219 
L 441 3319 
L 1319 3319 
L 1319 1794 
Q 1319 1094 1367 936 
Q 1416 778 1544 686 
Q 1672 594 1869 594 
Q 2094 594 2272 717 
Q 2450 841 2515 1023 
Q 2581 1206 2581 1919 
L 2581 3319 
L 3459 3319 
L 3459 0 
L 2644 0 
z
" transform="scale(0.015625)"/>
      <path id="Arial-BoldMT-72" d="M 1300 0 
L 422 0 
L 422 3319 
L 1238 3319 
L 1238 2847 
Q 1447 3181 1614 3287 
Q 1781 3394 1994 3394 
Q 2294 3394 2572 3228 
L 2300 2463 
Q 2078 2606 1888 2606 
Q 1703 2606 1575 2504 
Q 1447 2403 1373 2137 
Q 1300 1872 1300 1025 
L 1300 0 
z
" transform="scale(0.015625)"/>
      <path id="Arial-BoldMT-55" d="M 459 4581 
L 1384 4581 
L 1384 2100 
Q 1384 1509 1419 1334 
Q 1478 1053 1701 883 
Q 1925 713 2313 713 
Q 2706 713 2906 873 
Q 3106 1034 3147 1268 
Q 3188 1503 3188 2047 
L 3188 4581 
L 4113 4581 
L 4113 2175 
Q 4113 1350 4038 1009 
Q 3963 669 3761 434 
Q 3559 200 3221 61 
Q 2884 -78 2341 -78 
Q 1684 -78 1345 73 
Q 1006 225 809 467 
Q 613 709 550 975 
Q 459 1369 459 2138 
L 459 4581 
z
" transform="scale(0.015625)"/>
     </defs>
     <use xlink:href="#Arial-BoldMT-50"/>
     <use xlink:href="#Arial-BoldMT-61" x="66.699219"/>
     <use xlink:href="#Arial-BoldMT-6e" x="122.314453"/>
     <use xlink:href="#Arial-BoldMT-65" x="183.398438"/>
     <use xlink:href="#Arial-BoldMT-6c" x="239.013672"/>
     <use xlink:href="#Arial-BoldMT-20" x="266.796875"/>
     <use xlink:href="#Arial-BoldMT-43" x="294.580078"/>
     <use xlink:href="#Arial-BoldMT-3a" x="366.796875"/>
     <use xlink:href="#Arial-BoldMT-20" x="400.097656"/>
     <use xlink:href="#Arial-BoldMT-4d" x="427.880859"/>
     <use xlink:href="#Arial-BoldMT-69" x="511.181641"/>
     <use xlink:href="#Arial-BoldMT-78" x="538.964844"/>
     <use xlink:href="#Arial-BoldMT-74" x="594.580078"/>
     <use xlink:href="#Arial-BoldMT-75" x="627.880859"/>
     <use xlink:href="#Arial-BoldMT-72" x="688.964844"/>
     <use xlink:href="#Arial-BoldMT-65" x="727.880859"/>
     <use xlink:href="#Arial-BoldMT-20" x="783.496094"/>
     <use xlink:href="#Arial-BoldMT-55" x="811.279297"/>
     <use xlink:href="#Arial-BoldMT-6e" x="883.496094"/>
     <use xlink:href="#Arial-BoldMT-6d" x="944.580078"/>
     <use xlink:href="#Arial-BoldMT-69" x="1033.496094"/>
     <use xlink:href="#Arial-BoldMT-78" x="1061.279297"/>
     <use xlink:href="#Arial-BoldMT-69" x="1116.894531"/>
     <use xlink:href="#Arial-BoldMT-6e" x="1144.677734"/>
     <use xlink:href="#Arial-BoldMT-67" x="1205.761719"/>
     <use xlink:href="#Arial-BoldMT-20" x="1266.845703"/>
     <use xlink:href="#Arial-BoldMT-50" x="1294.628906"/>
     <use xlink:href="#Arial-BoldMT-69" x="1361.328125"/>
     <use xlink:href="#Arial-BoldMT-70" x="1389.111328"/>
     <use xlink:href="#Arial-BoldMT-65" x="1450.195312"/>
     <use xlink:href="#Arial-BoldMT-6c" x="1505.810547"/>
     <use xlink:href="#Arial-BoldMT-69" x="1533.59375"/>
     <use xlink:href="#Arial-BoldMT-6e" x="1561.376953"/>
     <use xlink:href="#Arial-BoldMT-65" x="1622.460938"/>
    </g>
   </g>
   <g id="text_11">
    <!-- Mixed Contaminants -->
    <g transform="translate(128.126562 494.16) scale(0.1 -0.1)">
     <defs>
      <path id="ArialMT-73" d="M 197 991 
L 753 1078 
Q 800 744 1014 566 
Q 1228 388 1613 388 
Q 2000 388 2187 545 
Q 2375 703 2375 916 
Q 2375 1106 2209 1216 
Q 2094 1291 1634 1406 
Q 1016 1563 777 1677 
Q 538 1791 414 1992 
Q 291 2194 291 2438 
Q 291 2659 392 2848 
Q 494 3038 669 3163 
Q 800 3259 1026 3326 
Q 1253 3394 1513 3394 
Q 1903 3394 2198 3281 
Q 2494 3169 2634 2976 
Q 2775 2784 2828 2463 
L 2278 2388 
Q 2241 2644 2061 2787 
Q 1881 2931 1553 2931 
Q 1166 2931 1000 2803 
Q 834 2675 834 2503 
Q 834 2394 903 2306 
Q 972 2216 1119 2156 
Q 1203 2125 1616 2013 
Q 2213 1853 2448 1751 
Q 2684 1650 2818 1456 
Q 2953 1263 2953 975 
Q 2953 694 2789 445 
Q 2625 197 2315 61 
Q 2006 -75 1616 -75 
Q 969 -75 630 194 
Q 291 463 197 991 
z
" transform="scale(0.015625)"/>
     </defs>
     <use xlink:href="#ArialMT-4d"/>
     <use xlink:href="#ArialMT-69" x="83.300781"/>
     <use xlink:href="#ArialMT-78" x="105.517578"/>
     <use xlink:href="#ArialMT-65" x="155.517578"/>
     <use xlink:href="#ArialMT-64" x="211.132812"/>
     <use xlink:href="#ArialMT-20" x="266.748047"/>
     <use xlink:href="#ArialMT-43" x="294.53125"/>
     <use xlink:href="#ArialMT-6f" x="366.748047"/>
     <use xlink:href="#ArialMT-6e" x="422.363281"/>
     <use xlink:href="#ArialMT-74" x="477.978516"/>
     <use xlink:href="#ArialMT-61" x="505.761719"/>
     <use xlink:href="#ArialMT-6d" x="561.376953"/>
     <use xlink:href="#ArialMT-69" x="644.677734"/>
     <use xlink:href="#ArialMT-6e" x="666.894531"/>
     <use xlink:href="#ArialMT-61" x="722.509766"/>
     <use xlink:href="#ArialMT-6e" x="778.125"/>
     <use xlink:href="#ArialMT-74" x="833.740234"/>
     <use xlink:href="#ArialMT-73" x="861.523438"/>
    </g>
   </g>
   <g id="patch_13">
    <path d="M 229.5 456.7 
Q 251.400751 456.7 273.301501 456.7 
L 273.301501 451.2 
Q 279.300751 454.2 285.3 457.2 
Q 279.300751 460.2 273.301501 463.2 
L 273.301501 457.7 
Q 251.400751 457.7 229.5 457.7 
L 229.5 456.7 
z
" style="stroke: #000000; stroke-linecap: round"/>
   </g>
   <g id="text_12">
    <!-- Blind Source -->
    <g transform="translate(312.84125 473.2615) scale(0.08 -0.08)">
     <defs>
      <path id="Arial-ItalicMT-42" d="M 278 0 
L 1238 4581 
L 2656 4581 
Q 3044 4581 3231 4550 
Q 3538 4497 3748 4364 
Q 3959 4231 4075 4001 
Q 4191 3772 4191 3494 
Q 4191 3116 3983 2828 
Q 3775 2541 3347 2391 
Q 3719 2269 3903 2023 
Q 4088 1778 4088 1450 
Q 4088 1072 3870 725 
Q 3653 378 3295 189 
Q 2938 0 2497 0 
L 278 0 
z
M 1441 2625 
L 2369 2625 
Q 3034 2625 3326 2837 
Q 3619 3050 3619 3456 
Q 3619 3650 3528 3790 
Q 3438 3931 3286 3995 
Q 3134 4059 2716 4059 
L 1741 4059 
L 1441 2625 
z
M 1000 519 
L 2044 519 
Q 2459 519 2603 547 
Q 2894 597 3075 717 
Q 3256 838 3359 1034 
Q 3463 1231 3463 1447 
Q 3463 1769 3261 1936 
Q 3059 2103 2494 2103 
L 1331 2103 
L 1000 519 
z
" transform="scale(0.015625)"/>
      <path id="Arial-ItalicMT-6c" d="M 169 0 
L 1125 4581 
L 1691 4581 
L 734 0 
L 169 0 
z
" transform="scale(0.015625)"/>
      <path id="Arial-ItalicMT-53" d="M 450 1481 
L 1050 1538 
L 1044 1378 
Q 1044 1113 1166 892 
Q 1288 672 1569 551 
Q 1850 431 2238 431 
Q 2788 431 3077 672 
Q 3366 913 3366 1222 
Q 3366 1438 3213 1616 
Q 3056 1791 2359 2091 
Q 1819 2325 1622 2450 
Q 1313 2653 1166 2892 
Q 1019 3131 1019 3438 
Q 1019 3791 1212 4075 
Q 1406 4359 1779 4509 
Q 2153 4659 2622 4659 
Q 3181 4659 3565 4471 
Q 3950 4284 4123 3971 
Q 4297 3659 4297 3375 
Q 4297 3347 4294 3281 
L 3703 3234 
Q 3703 3428 3669 3538 
Q 3606 3728 3475 3859 
Q 3344 3991 3114 4070 
Q 2884 4150 2600 4150 
Q 2100 4150 1822 3925 
Q 1609 3753 1609 3469 
Q 1609 3300 1696 3167 
Q 1784 3034 2013 2906 
Q 2175 2816 2784 2547 
Q 3278 2328 3466 2203 
Q 3716 2038 3850 1802 
Q 3984 1566 3984 1266 
Q 3984 894 3757 580 
Q 3531 266 3131 94 
Q 2731 -78 2216 -78 
Q 1438 -78 945 261 
Q 453 600 450 1481 
z
" transform="scale(0.015625)"/>
     </defs>
     <use xlink:href="#Arial-ItalicMT-42"/>
     <use xlink:href="#Arial-ItalicMT-6c" x="66.699219"/>
     <use xlink:href="#Arial-ItalicMT-69" x="88.916016"/>
     <use xlink:href="#Arial-ItalicMT-6e" x="111.132812"/>
     <use xlink:href="#Arial-ItalicMT-64" x="166.748047"/>
     <use xlink:href="#Arial-ItalicMT-20" x="222.363281"/>
     <use xlink:href="#Arial-ItalicMT-53" x="250.146484"/>
     <use xlink:href="#Arial-ItalicMT-6f" x="316.845703"/>
     <use xlink:href="#Arial-ItalicMT-75" x="372.460938"/>
     <use xlink:href="#Arial-ItalicMT-72" x="428.076172"/>
     <use xlink:href="#Arial-ItalicMT-63" x="461.376953"/>
     <use xlink:href="#Arial-ItalicMT-65" x="511.376953"/>
    </g>
    <!-- Separation -->
    <g transform="translate(316.17375 481.84) scale(0.08 -0.08)">
     <defs>
      <path id="Arial-ItalicMT-70" d="M -66 -1272 
L 894 3319 
L 1416 3319 
L 1319 2856 
Q 1609 3159 1839 3276 
Q 2069 3394 2325 3394 
Q 2800 3394 3112 3048 
Q 3425 2703 3425 2059 
Q 3425 1541 3253 1114 
Q 3081 688 2831 428 
Q 2581 169 2325 47 
Q 2069 -75 1800 -75 
Q 1203 -75 875 531 
L 500 -1272 
L -66 -1272 
z
M 1053 1356 
Q 1053 984 1106 841 
Q 1184 638 1362 513 
Q 1541 388 1775 388 
Q 2263 388 2563 936 
Q 2863 1484 2863 2056 
Q 2863 2478 2661 2708 
Q 2459 2938 2159 2938 
Q 1944 2938 1759 2823 
Q 1575 2709 1417 2482 
Q 1259 2256 1156 1928 
Q 1053 1600 1053 1356 
z
" transform="scale(0.015625)"/>
     </defs>
     <use xlink:href="#Arial-ItalicMT-53"/>
     <use xlink:href="#Arial-ItalicMT-65" x="66.699219"/>
     <use xlink:href="#Arial-ItalicMT-70" x="122.314453"/>
     <use xlink:href="#Arial-ItalicMT-61" x="177.929688"/>
     <use xlink:href="#Arial-ItalicMT-72" x="233.544922"/>
     <use xlink:href="#Arial-ItalicMT-61" x="266.845703"/>
     <use xlink:href="#Arial-ItalicMT-74" x="322.460938"/>
     <use xlink:href="#Arial-ItalicMT-69" x="350.244141"/>
     <use xlink:href="#Arial-ItalicMT-6f" x="372.460938"/>
     <use xlink:href="#Arial-ItalicMT-6e" x="428.076172"/>
    </g>
   </g>
   <g id="patch_14">
    <path d="M 368.946101 456.955879 
Q 390.986488 452.089615 413.026875 447.22335 
L 412.541784 445.026264 
Q 418.670892 444.953132 424.8 444.88 
Q 419.209882 447.394339 413.619764 449.908677 
L 413.134673 447.711591 
Q 391.094286 452.577856 369.053899 457.444121 
L 368.946101 456.955879 
z
" style="stroke: #000000; stroke-linecap: round"/>
   </g>
   <g id="patch_15">
    <path d="M 369.053899 456.955879 
Q 391.094286 461.822144 413.134673 466.688409 
L 413.619764 464.491323 
Q 419.209882 467.005661 424.8 469.52 
Q 418.670892 469.446868 412.541784 469.373736 
L 413.026875 467.17665 
Q 390.986488 462.310385 368.946101 457.444121 
L 369.053899 456.955879 
z
" style="stroke: #000000; stroke-linecap: round"/>
   </g>
   <g id="text_13">
    <!-- Component 1 -->
    <g transform="translate(564.3 430.34075) scale(0.08 -0.08)">
     <defs>
      <path id="ArialMT-31" d="M 2384 0 
L 1822 0 
L 1822 3584 
Q 1619 3391 1289 3197 
Q 959 3003 697 2906 
L 697 3450 
Q 1169 3672 1522 3987 
Q 1875 4303 2022 4600 
L 2384 4600 
L 2384 0 
z
" transform="scale(0.015625)"/>
     </defs>
     <use xlink:href="#ArialMT-43"/>
     <use xlink:href="#ArialMT-6f" x="72.216797"/>
     <use xlink:href="#ArialMT-6d" x="127.832031"/>
     <use xlink:href="#ArialMT-70" x="211.132812"/>
     <use xlink:href="#ArialMT-6f" x="266.748047"/>
     <use xlink:href="#ArialMT-6e" x="322.363281"/>
     <use xlink:href="#ArialMT-65" x="377.978516"/>
     <use xlink:href="#ArialMT-6e" x="433.59375"/>
     <use xlink:href="#ArialMT-74" x="489.208984"/>
     <use xlink:href="#ArialMT-20" x="516.992188"/>
     <use xlink:href="#ArialMT-31" x="544.775391"/>
    </g>
    <!-- (Microplastic) -->
    <g transform="translate(564.3 438.91925) scale(0.08 -0.08)">
     <use xlink:href="#ArialMT-28"/>
     <use xlink:href="#ArialMT-4d" x="33.300781"/>
     <use xlink:href="#ArialMT-69" x="116.601562"/>
     <use xlink:href="#ArialMT-63" x="138.818359"/>
     <use xlink:href="#ArialMT-72" x="188.818359"/>
     <use xlink:href="#ArialMT-6f" x="222.119141"/>
     <use xlink:href="#ArialMT-70" x="277.734375"/>
     <use xlink:href="#ArialMT-6c" x="333.349609"/>
     <use xlink:href="#ArialMT-61" x="355.566406"/>
     <use xlink:href="#ArialMT-73" x="411.181641"/>
     <use xlink:href="#ArialMT-74" x="461.181641"/>
     <use xlink:href="#ArialMT-69" x="488.964844"/>
     <use xlink:href="#ArialMT-63" x="511.181641"/>
     <use xlink:href="#ArialMT-29" x="561.181641"/>
    </g>
   </g>
   <g id="text_14">
    <!-- Component 2 -->
    <g transform="translate(564.3 479.62075) scale(0.08 -0.08)">
     <use xlink:href="#ArialMT-43"/>
     <use xlink:href="#ArialMT-6f" x="72.216797"/>
     <use xlink:href="#ArialMT-6d" x="127.832031"/>
     <use xlink:href="#ArialMT-70" x="211.132812"/>
     <use xlink:href="#ArialMT-6f" x="266.748047"/>
     <use xlink:href="#ArialMT-6e" x="322.363281"/>
     <use xlink:href="#ArialMT-65" x="377.978516"/>
     <use xlink:href="#ArialMT-6e" x="433.59375"/>
     <use xlink:href="#ArialMT-74" x="489.208984"/>
     <use xlink:href="#ArialMT-20" x="516.992188"/>
     <use xlink:href="#ArialMT-32" x="544.775391"/>
    </g>
    <!-- (Bio-matter) -->
    <g transform="translate(564.3 488.19925) scale(0.08 -0.08)">
     <defs>
      <path id="ArialMT-42" d="M 469 0 
L 469 4581 
L 2188 4581 
Q 2713 4581 3030 4442 
Q 3347 4303 3526 4014 
Q 3706 3725 3706 3409 
Q 3706 3116 3547 2856 
Q 3388 2597 3066 2438 
Q 3481 2316 3704 2022 
Q 3928 1728 3928 1328 
Q 3928 1006 3792 729 
Q 3656 453 3456 303 
Q 3256 153 2954 76 
Q 2653 0 2216 0 
L 469 0 
z
M 1075 2656 
L 2066 2656 
Q 2469 2656 2644 2709 
Q 2875 2778 2992 2937 
Q 3109 3097 3109 3338 
Q 3109 3566 3000 3739 
Q 2891 3913 2687 3977 
Q 2484 4041 1991 4041 
L 1075 4041 
L 1075 2656 
z
M 1075 541 
L 2216 541 
Q 2509 541 2628 563 
Q 2838 600 2978 687 
Q 3119 775 3209 942 
Q 3300 1109 3300 1328 
Q 3300 1584 3169 1773 
Q 3038 1963 2805 2039 
Q 2572 2116 2134 2116 
L 1075 2116 
L 1075 541 
z
" transform="scale(0.015625)"/>
      <path id="ArialMT-2d" d="M 203 1375 
L 203 1941 
L 1931 1941 
L 1931 1375 
L 203 1375 
z
" transform="scale(0.015625)"/>
     </defs>
     <use xlink:href="#ArialMT-28"/>
     <use xlink:href="#ArialMT-42" x="33.300781"/>
     <use xlink:href="#ArialMT-69" x="100"/>
     <use xlink:href="#ArialMT-6f" x="122.216797"/>
     <use xlink:href="#ArialMT-2d" x="177.832031"/>
     <use xlink:href="#ArialMT-6d" x="211.132812"/>
     <use xlink:href="#ArialMT-61" x="294.433594"/>
     <use xlink:href="#ArialMT-74" x="350.048828"/>
     <use xlink:href="#ArialMT-74" x="377.832031"/>
     <use xlink:href="#ArialMT-65" x="405.615234"/>
     <use xlink:href="#ArialMT-72" x="461.230469"/>
     <use xlink:href="#ArialMT-29" x="494.53125"/>
    </g>
   </g>
   <g id="axes_7">
    <g id="line2d_4">
     <path d="M 122.972727 475.312305 
L 123.997521 474.449645 
L 125.022314 473.622072 
L 126.047107 472.863248 
L 127.071901 472.204034 
L 128.096694 471.671246 
L 129.121488 471.286552 
L 130.146281 471.0656 
L 131.171074 471.017376 
L 132.195868 471.143843 
L 133.220661 471.439855 
L 134.245455 471.893374 
L 135.270248 472.485953 
L 136.295041 473.19349 
L 137.319835 473.987206 
L 138.344628 474.834819 
L 139.369421 475.701853 
L 140.394215 476.553042 
L 141.419008 477.353763 
L 142.443802 478.071443 
L 143.468595 478.676866 
L 144.493388 479.145327 
L 145.518182 479.457518 
L 146.542975 479.6 
L 147.567769 479.56498 
L 148.592562 479.348903 
L 149.617355 478.949123 
L 150.642149 478.357748 
L 151.666942 477.552105 
L 152.691736 476.482533 
L 153.716529 475.060871 
L 154.741322 473.156497 
L 155.766116 470.609345 
L 156.790909 467.267881 
L 157.815702 463.051897 
L 158.840496 458.025758 
L 159.865289 452.453495 
L 160.890083 446.802765 
L 161.914876 441.678126 
L 162.939669 437.693471 
L 163.964463 435.324935 
L 164.989256 434.8 
L 166.01405 436.064638 
L 167.038843 438.834407 
L 168.063636 442.698187 
L 169.08843 447.225983 
L 170.113223 452.042096 
L 171.138017 456.851614 
L 172.16281 461.433095 
L 173.187603 465.62027 
L 174.212397 469.289827 
L 175.23719 472.359625 
L 176.261983 474.791902 
L 177.286777 476.593721 
L 178.31157 477.810531 
L 179.336364 478.513835 
L 180.361157 478.787023 
L 181.38595 478.713504 
L 182.410744 478.369396 
L 183.435537 477.820842 
L 184.460331 477.124583 
L 185.485124 476.330079 
L 186.509917 475.481754 
L 187.534711 474.620597 
L 188.559504 473.784894 
L 189.584298 473.010172 
L 190.609091 472.328626 
L 191.633884 471.76826 
L 192.658678 471.351979 
L 193.683471 471.096758 
L 194.708264 471.012991 
L 195.733058 471.104089 
L 196.757851 471.366351 
L 197.782645 471.789108 
L 198.807438 472.355166 
L 199.832231 473.041501 
L 200.857025 473.820198 
L 201.881818 474.659584 
L 202.906612 475.525519 
L 203.931405 476.382782 
L 204.956198 477.196504 
L 205.980992 477.93359 
L 207.005785 478.564058 
L 208.030579 479.062266 
L 209.055372 479.40795 
L 210.080165 479.58705 
L 211.104959 479.59228 
L 212.129752 479.423429 
L 213.154545 479.087364 
L 214.179339 478.597753 
L 215.204132 477.974512 
L 216.228926 477.24299 
L 217.253719 476.432939 
L 218.278512 475.577309 
L 219.303306 474.7109 
L 220.328099 473.868952 
L 221.352893 473.08571 
L 222.377686 472.393032 
L 223.402479 471.819091 
L 224.427273 471.387232 
" clip-path="url(#p6563fb287a)" style="fill: none; stroke: #800080; stroke-width: 1.5; stroke-linecap: square"/>
    </g>
   </g>
   <g id="axes_8">
    <g id="line2d_5">
     <path d="M 456.504545 449.36 
L 457.27314 449.36 
L 458.041736 449.36 
L 458.810331 449.36 
L 459.578926 449.36 
L 460.347521 449.36 
L 461.116116 449.36 
L 461.884711 449.36 
L 462.653306 449.36 
L 463.421901 449.36 
L 464.190496 449.36 
L 464.959091 449.36 
L 465.727686 449.36 
L 466.496281 449.36 
L 467.264876 449.36 
L 468.033471 449.36 
L 468.802066 449.36 
L 469.570661 449.359999 
L 470.339256 449.359996 
L 471.107851 449.359982 
L 471.876446 449.359928 
L 472.645041 449.359738 
L 473.413636 449.359102 
L 474.182231 449.357125 
L 474.950826 449.351406 
L 475.719421 449.335998 
L 476.488017 449.297372 
L 477.256612 449.207331 
L 478.025207 449.012307 
L 478.793802 448.620226 
L 479.562397 447.889513 
L 480.330992 446.629245 
L 481.099587 444.622345 
L 481.868182 441.681024 
L 482.636777 437.732071 
L 483.405372 432.910201 
L 484.173967 427.619077 
L 484.942562 422.515548 
L 485.711157 418.393631 
L 486.479752 415.987773 
L 487.248347 415.76 
L 488.016942 417.755237 
L 488.785537 421.586862 
L 489.554132 426.55886 
L 490.322727 431.871711 
L 491.091322 436.828667 
L 491.859917 440.971074 
L 492.628512 444.11344 
L 493.397107 446.294494 
L 494.165702 447.686642 
L 494.934298 448.506636 
L 495.702893 448.953426 
L 496.471488 449.179031 
L 497.240083 449.284746 
L 498.008678 449.330765 
L 498.777273 449.349389 
L 499.545868 449.356402 
L 500.314463 449.35886 
L 501.083058 449.359663 
L 501.851653 449.359907 
L 502.620248 449.359976 
L 503.388843 449.359994 
L 504.157438 449.359999 
L 504.926033 449.36 
L 505.694628 449.36 
L 506.463223 449.36 
L 507.231818 449.36 
L 508.000413 449.36 
L 508.769008 449.36 
L 509.537603 449.36 
L 510.306198 449.36 
L 511.074793 449.36 
L 511.843388 449.36 
L 512.611983 449.36 
L 513.380579 449.36 
L 514.149174 449.36 
L 514.917769 449.36 
L 515.686364 449.36 
L 516.454959 449.36 
L 517.223554 449.36 
L 517.992149 449.36 
L 518.760744 449.36 
L 519.529339 449.36 
L 520.297934 449.36 
L 521.066529 449.36 
L 521.835124 449.36 
L 522.603719 449.36 
L 523.372314 449.36 
L 524.140909 449.36 
L 524.909504 449.36 
L 525.678099 449.36 
L 526.446694 449.36 
L 527.215289 449.36 
L 527.983884 449.36 
L 528.752479 449.36 
L 529.521074 449.36 
L 530.289669 449.36 
L 531.058264 449.36 
L 531.82686 449.36 
L 532.595455 449.36 
" clip-path="url(#p79db15f3f2)" style="fill: none; stroke: #2a9d8f; stroke-width: 1.5; stroke-linecap: square"/>
    </g>
   </g>
   <g id="axes_9">
    <g id="line2d_6">
     <path d="M 456.504545 498.64 
L 457.27314 498.64 
L 458.041736 498.64 
L 458.810331 498.64 
L 459.578926 498.64 
L 460.347521 498.64 
L 461.116116 498.64 
L 461.884711 498.64 
L 462.653306 498.64 
L 463.421901 498.64 
L 464.190496 498.64 
L 464.959091 498.64 
L 465.727686 498.64 
L 466.496281 498.64 
L 467.264876 498.64 
L 468.033471 498.64 
L 468.802066 498.64 
L 469.570661 498.64 
L 470.339256 498.639999 
L 471.107851 498.639998 
L 471.876446 498.639993 
L 472.645041 498.639976 
L 473.413636 498.639921 
L 474.182231 498.639758 
L 474.950826 498.639291 
L 475.719421 498.638029 
L 476.488017 498.634792 
L 477.256612 498.626921 
L 478.025207 498.608786 
L 478.793802 498.569215 
L 479.562397 498.48746 
L 480.330992 498.32763 
L 481.099587 498.032145 
L 481.868182 497.515978 
L 482.636777 496.664875 
L 483.405372 495.34194 
L 484.173967 493.406805 
L 484.942562 490.749225 
L 485.711157 487.333797 
L 486.479752 483.245759 
L 487.248347 478.722072 
L 488.016942 474.15081 
L 488.785537 470.027944 
L 489.554132 466.873593 
L 490.322727 465.125596 
L 491.091322 465.04 
L 491.859917 466.629575 
L 492.628512 469.660694 
L 493.397107 473.70962 
L 494.165702 478.25953 
L 494.934298 482.807705 
L 495.702893 486.9526 
L 496.471488 490.441463 
L 497.240083 493.174887 
L 498.008678 495.178165 
L 498.777273 496.556191 
L 499.545868 497.448061 
L 500.314463 497.992121 
L 501.083058 498.305359 
L 501.851653 498.475749 
L 502.620248 498.563391 
L 503.388843 498.606045 
L 504.157438 498.625699 
L 504.926033 498.634276 
L 505.694628 498.637823 
L 506.463223 498.639213 
L 507.231818 498.63973 
L 508.000413 498.639912 
L 508.769008 498.639973 
L 509.537603 498.639992 
L 510.306198 498.639998 
L 511.074793 498.639999 
L 511.843388 498.64 
L 512.611983 498.64 
L 513.380579 498.64 
L 514.149174 498.64 
L 514.917769 498.64 
L 515.686364 498.64 
L 516.454959 498.64 
L 517.223554 498.64 
L 517.992149 498.64 
L 518.760744 498.64 
L 519.529339 498.64 
L 520.297934 498.64 
L 521.066529 498.64 
L 521.835124 498.64 
L 522.603719 498.64 
L 523.372314 498.64 
L 524.140909 498.64 
L 524.909504 498.64 
L 525.678099 498.64 
L 526.446694 498.64 
L 527.215289 498.64 
L 527.983884 498.64 
L 528.752479 498.64 
L 529.521074 498.64 
L 530.289669 498.64 
L 531.058264 498.64 
L 531.82686 498.64 
L 532.595455 498.64 
" clip-path="url(#pcf6d274841)" style="fill: none; stroke: #a52a2a; stroke-width: 1.5; stroke-linecap: square"/>
    </g>
   </g>
  </g>
 </g>
 <defs>
  <clipPath id="pac86c60440">
   <rect x="90" y="69.12" width="558" height="123.2"/>
  </clipPath>
  <clipPath id="pcc328f728e">
   <rect x="117.9" y="112.24" width="111.6" height="49.28"/>
  </clipPath>
  <clipPath id="p941a080f80">
   <rect x="90" y="229.28" width="558" height="123.2"/>
  </clipPath>
  <clipPath id="p481aad7d92">
   <rect x="117.9" y="272.4" width="111.6" height="49.28"/>
  </clipPath>
  <clipPath id="pa0e3ff44b5">
   <rect x="452.7" y="272.4" width="111.6" height="49.28"/>
  </clipPath>
  <clipPath id="pa78e01d5f7">
   <rect x="90" y="389.44" width="558" height="123.2"/>
  </clipPath>
  <clipPath id="p6563fb287a">
   <rect x="117.9" y="432.56" width="111.6" height="49.28"/>
  </clipPath>
  <clipPath id="p79db15f3f2">
   <rect x="452.7" y="414.08" width="83.7" height="36.96"/>
  </clipPath>
  <clipPath id="pcf6d274841">
   <rect x="452.7" y="463.36" width="83.7" height="36.96"/>
  </clipPath>
 </defs>
</svg>
